<?xml version="1.0" encoding="UTF-8"?>
<!DOCTYPE svg PUBLIC "-//W3C//DTD SVG 1.1//EN" "http://www.w3.org/Graphics/SVG/1.1/DTD/svg11.dtd">
<!-- Creator: CorelDRAW 2021 (64-Bit) -->
<svg xmlns="http://www.w3.org/2000/svg" xml:space="preserve" width="1778px" height="1468px" version="1.1" style="shape-rendering:geometricPrecision; text-rendering:geometricPrecision; image-rendering:optimizeQuality; fill-rule:evenodd; clip-rule:evenodd"
viewBox="0 0 2003.225 1654.04"
 xmlns:xlink="http://www.w3.org/1999/xlink"
 xmlns:xodm="http://www.corel.com/coreldraw/odm/2003">
 <defs>
  <style type="text/css">
   <![CDATA[
    .fil0 {fill:black;fill-rule:nonzero}
   ]]>
  </style>
 </defs>
 <g id="Capa_x0020_1">
  <metadata id="CorelCorpID_0Corel-Layer"/>
  <g>
   <path class="fil0" d="M1581.654 1193.44c10.695,8.031 67.068,65.6 76.566,74.751 9.846,-7.491 16.874,-19.46 15.02,-32.162 0.695,-12.164 -12.664,-25.33 -0.424,-35.137 8.571,7.452 17.182,15.715 21.236,26.642 5.406,12.047 3.012,25.561 2.934,38.341 15.561,6.525 24.596,-13.128 23.515,-26.025 1.313,-16.255 -5.945,-31.159 -14.093,-44.634 4.208,-2.51 7.683,-10.773 13.514,-7.143 19.498,13.05 25.174,37.723 29.228,59.422 13.823,-23.63 2.742,-53.322 -14.209,-72.241 -17.258,-21.623 -42.009,-35.06 -67.337,-44.905 -35.408,-15.136 -72.358,-25.831 -108.692,-38.303 -29.19,-12.394 -61.044,-18.379 -88.614,-34.518 -10.347,-6.063 -11.621,-19.268 -11.505,-30.002 2.355,-32.162 7.027,-64.983 -0.193,-96.837 -3.127,-12.471 -6.488,-24.866 -8.881,-37.453 -1.737,-3.823 -3.282,-7.683 -4.633,-11.545 2.741,-3.088 5.636,-6.062 8.649,-8.919 1.814,4.942 3.204,10.039 3.166,15.405 17.221,8.765 21.429,29.809 27.414,46.566 9.344,27.028 8.417,55.794 8.688,84.019 31.622,-36.797 48.727,-86.683 44.711,-135.14 -12.857,13.9 -15.561,35.329 -31.313,46.604 -4.286,-10.928 -2.665,-22.743 -2.896,-34.094 -2.278,-21.855 -18.302,-38.998 -22.125,-60.466 4.519,-1.389 9.035,-2.703 13.592,-3.899 8.416,11.506 15.328,24.016 22.046,36.603 16.99,-27.259 17.685,-61.933 39.732,-86.412 15.599,-23.36 42.511,-38.264 70.813,-37.183 28.38,-1.235 54.25,13.206 76.027,30.002 9.536,-3.9 19.923,-7.028 27.452,-14.481 10.194,-9.691 13.437,-24.015 16.564,-37.182 -14.904,1.197 -29.731,5.985 -44.635,2.394 -14.556,-3.089 -29.807,-2.51 -42.665,5.638 -4.247,-3.9 -8.417,-7.916 -12.433,-11.97 4.286,-6.603 8.186,-14.711 16.372,-17.144 25.946,-8.417 52.935,9.46 78.69,-1.545 21.313,-4.903 34.788,-26.101 34.055,-47.26 -8.688,-14.13 -26.719,-19.306 -34.674,-34.017 1.544,-3.475 3.244,-6.833 5.059,-10.115 13.746,4.285 28.147,2.934 42.279,1.815 -28.92,-23.63 -62.049,-41.584 -94.714,-59.385 -7.452,-6.911 -13.012,-15.716 -20.927,-22.125 -15.676,-13.166 -36.295,-17.799 -55.987,-20.926 7.452,9.69 17.607,16.679 25.947,25.637 -19.692,-1.891 -39.538,-1.467 -58.844,2.896 -11.313,2.046 -28.61,6.757 -32.974,-8.031 18.225,-9.73 39.036,-13.321 59.578,-13.051 -1.352,-2.78 -2.664,-5.521 -3.978,-8.224 -23.939,-0.657 -47.685,-4.247 -71.662,-3.011 -2.201,4.825 0.579,14.285 -6.95,14.788 -7.104,1.544 -12.239,-5.831 -17.105,-9.808 -16.333,-18.147 -30.658,-41.661 -56.218,-47.415 -8.573,-2.78 -13.9,6.526 -15.522,13.553 -6.371,17.529 2.162,36.295 13.282,49.886 9.035,11.12 23.09,15.599 34.287,23.977 0.348,1.777 1.042,5.329 1.39,7.144 -18.804,8.803 -42.241,9.344 -59.346,-3.591 -20.194,15.174 -38.919,32.047 -56.797,49.886 0.232,13.166 0.038,26.719 -5.174,39.075 -1.043,37.607 3.437,76.296 22.124,109.656 6.603,6.719 -2.316,13.591 -9.073,14.132 -22.859,-19.537 -34.21,-48.381 -46.257,-75.099 -5.482,-10.773 -7.799,-22.743 -10.541,-34.365 -8.494,8.996 -16.834,18.147 -25.059,27.415 -2.085,28.379 3.476,57.415 19.731,81.238 7.877,17.645 27.144,24.48 39.191,38.457 18.108,20.658 44.016,35.252 55.176,61.469 4.787,13.398 12.818,25.677 15.328,39.847 -1.969,4.904 -10.928,9.73 -13.784,2.935 -8.148,-13.206 -15.639,-27.028 -26.835,-37.955 -44.255,-50.255 -118.604,-86.829 -128.229,-137.843 -18.687,-8.881 -31.584,-26.024 -42.28,-43.129 -25.907,-41.044 -33.63,-92.282 -23.861,-139.58 7.298,-42.087 21.738,-86.374 6.371,-128.422 -12.896,-46.99 -51.585,-80.775 -91.277,-105.873 -31.43,-17.375 -64.52,-31.66 -98.035,-44.402 -31.855,-15.715 -65.639,-27.724 -95.216,-47.685 -41.469,-24.055 -75.061,-59.925 -100.698,-100.082 -3.668,42.705 15.522,83.672 39.885,117.495 16.294,20.85 35.059,40.504 58.535,53.284 31.816,20.154 66.683,34.595 100.467,51.083 11.507,6.834 25.638,12.896 30.967,26.178 -1.97,1.043 -5.908,3.128 -7.877,4.21 -18.186,-5.176 -35.484,-13.554 -54.211,-16.681 -40.773,-6.835 -81.934,-13.591 -120.814,-28.07 -29.847,-12.434 -60.35,-24.906 -85.796,-45.291 -15.134,-10.966 -26.989,-25.523 -40.078,-38.651 3.784,40.619 26.294,76.876 54.635,105.177 25.02,24.171 56.72,39.616 88.304,53.246 33.438,13.514 69.462,18.225 104.02,27.993 17.297,4.286 34.634,10.271 48.92,21.275 6.139,4.17 1.583,10.387 -0.039,15.753 -55.831,-17.105 -114.791,-4.015 -171.975,-6.061 -41.661,-3.09 -84.096,-9.73 -121.356,-29.731 25.677,47.801 76.683,76.605 128.306,87.841 50.389,15.096 104.328,4.981 154.716,19.691 5.059,0.851 7.53,11.545 1.776,12.549 -75.137,11.081 -146.183,49.654 -223.907,42.627 50.272,45.793 124.329,44.751 187.342,33.63 16.913,-2.626 37.067,-11.467 52.859,-1.08l0.04 5.058c-13.167,13.475 -31.044,21.391 -45.215,33.861 -28.225,23.168 -60.542,40.813 -94.868,53.247 41.738,17.027 88.807,12.548 130.391,-2.55 14.479,-5.907 30.001,-8.649 45.484,-10.385 6.525,-0.04 9.924,6.023 5.059,10.964 -20.89,23.901 -44.481,45.64 -70.776,63.517 20.658,1.699 41.392,5.908 62.165,2.548 22.201,-0.927 43.206,-10.734 65.677,-8.92 5.947,0.387 15.253,0.271 16.951,7.761 -10,10.194 -23.013,16.72 -35.136,23.978 -12.472,7.684 -27.492,8.456 -40.89,13.437 -12.78,15.56 -27.492,29.152 -43.437,41.392 2.045,30.387 -7.645,60.04 -4.596,90.39 5.059,34.44 14.789,68.535 32.048,98.959 -3.05,2.472 -6.063,4.943 -9.073,7.415 -19.384,-16.45 -36.797,-36.102 -46.45,-59.887 -6.679,-17.567 -19.77,-34.017 -14.981,-53.94 -5.097,-5.29 -11.429,-9.769 -14.711,-16.448 -2.626,-10.465 -3.089,-21.314 -5.753,-31.739 -10.425,3.244 -20.85,6.486 -31.353,9.537 -0.617,13.205 -5.212,26.294 -13.823,36.487 -4.015,5.097 -14.054,5.251 -16.333,-1.544 -4.787,-9.422 -2.625,-20.193 -2.239,-30.232 -14.633,3.05 -29.499,4.633 -44.442,4.633 -13.707,29.576 -27.568,59.616 -48.92,84.597 -13.012,12.896 -25.986,25.87 -37.569,40.079 -5.058,6.834 -11.661,-1.468 -16.372,-4.17 7.453,-14.363 17.8,-26.99 24.557,-41.7 8.573,-18.727 21.314,-35.484 26.681,-55.639 2.201,-10.387 12.124,-15.639 18.224,-23.476 -26.989,-4.286 -54.132,-7.877 -81.277,-11.159 -2.509,22.471 -20.889,37.415 -33.669,54.442 -15.058,13.784 -24.401,33.206 -41.662,44.674 -6.215,-0.116 -12.239,-7.375 -8.262,-13.09 7.838,-17.954 11.506,-37.26 15.29,-56.372 -3.823,-9.19 -5.56,-18.997 -5.252,-28.882 -22.432,3.282 -45.213,7.298 -65.562,17.838 4.75,15.947 1.235,31.971 -0.849,48.072 4.865,12.125 5.637,25.214 7.452,38.032 -3.513,1.969 -7.028,3.938 -10.734,5.522 -8.301,-8.764 -12.664,-20.542 -21.777,-28.611 -11.931,-11.969 -31.738,-13.283 -39.267,-29.923 -14.981,11.042 -30.271,21.659 -45.369,32.625 3.359,5.908 10.849,11.044 9.383,18.649 -0.232,9.886 -10.425,13.786 -18.032,17.105 -9.227,-3.552 -20,-16.178 -29.152,-6.409 -25.869,20.928 -51.661,42.705 -82.049,56.798 -10.657,5.212 -21.893,9.189 -32.395,14.711 1.39,21.738 -18.611,37.222 -18.032,58.148 25.91,-5.753 49.81,-17.761 73.363,-29.615 -3.089,-8.224 -6.256,-19.614 3.629,-24.711 9.151,-7.451 18.032,2.549 22.202,10.348 43.321,-26.68 84.983,-58.612 134.947,-71.701 1.466,2.394 4.44,7.142 5.907,9.537 -25.174,19.845 -45.947,45.136 -60.35,73.786 -13.051,27.761 -21.545,57.531 -35.677,84.83 -25.329,49.538 -74.52,87.3 -130.004,95.254 -12.394,2.355 -26.488,2.857 -35.948,12.394 -16.255,15.56 -21.005,38.496 -28.766,58.805 -7.992,22.472 -17.259,44.596 -29.034,65.369 -14.287,24.248 -40.35,37.453 -63.71,51.392 -10.734,8.031 -29.267,0.888 -35.059,15.715 -7.142,9.884 6.603,17.877 14.75,20.541 14.557,2.163 28.843,-3.667 42.473,-8.108 5.211,-1.66 7.953,5.212 8.881,9.266 -15.407,21.082 -44.25,24.75 -68.421,21.507 5.792,10.348 15.329,19.846 27.916,20.155 21.159,2.858 38.458,-11.661 57.184,-18.533 3.977,2.586 5.521,6.255 4.672,10.966 -6.256,9.035 -16.642,13.59 -25.831,18.996 0.193,0.734 0.54,2.279 0.695,3.05 19.306,-5.443 36.99,-16.139 50.542,-30.888 21.778,-24.518 35.059,-54.829 53.284,-81.819 11.506,-18.726 25.638,-35.753 41.083,-51.391 18.417,-18.456 43.399,-28.032 67.917,-35.329 33.476,-8.61 68.459,-8.341 102.127,-16.025 30.194,-8.107 60.582,-17.954 87.03,-35.058 18.302,-13.785 37.917,-26.372 53.129,-43.708 31.507,-35.137 55.022,-76.528 74.096,-119.502 10.888,-20.118 22.318,-41.084 40.735,-55.37 13.244,14.326 -0.27,33.052 -1.969,49.153 8.379,2.316 16.835,4.518 25.367,6.409 11.893,-34.21 17.376,-70.35 27.492,-104.83 3.36,-9.189 12.008,-2.278 17.452,0.733 -2.896,14.519 -2.085,29.345 -2.586,44.095 1.93,13.36 3.397,27.607 -4.055,39.692 1.235,11.815 0.155,24.596 6.719,35.137 26.062,9.035 53.747,12.857 81.121,15.792 29.153,7.722 59.54,8.456 89.502,8.996 64.829,0.309 130.507,-12.51 188.811,-41.546 12.394,-6.834 24.363,-14.441 37.22,-20.386 -1.891,-21.043 -5.752,-41.816 -11.158,-62.203 6.564,1.158 15.328,0.038 19.228,6.988 12.974,19.77 26.295,39.616 34.75,61.856 3.669,10.734 11.468,20.58 22.666,23.977 33.9,11.661 69.539,0.58 104.251,1.623 55.252,-6.41 112.165,0.733 164.561,19.035 -0.038,11.583 -1.467,23.128 -1.351,34.789 -43.438,-17.029 -91.47,-21.429 -137.611,-16.024 -51.314,3.166 -104.058,18.031 -154.639,1.313 -13.089,-3.784 -23.012,-13.554 -31.159,-23.979 -46.527,26.256 -97.301,46.103 -150.392,53.207 -49.963,8.224 -100.814,3.244 -150.816,-2.085 -28.071,-4.71 -56.45,-7.721 -84.018,-14.981 -14.557,48.651 -34.596,97.34 -68.729,135.758 -31.275,35.445 -72.589,62.241 -118.343,74.713 -32.936,12.511 -69.964,17.568 -97.688,40.966 -33.823,28.457 -52.396,70.041 -67.338,110.661 -9.691,27.26 -31.236,50.349 -58.38,60.621 -18.611,4.324 -39.345,9.729 -57.455,0.887 -5.675,-2.973 -5.366,-10.154 -7.22,-15.368 -8.841,-4.749 -18.649,-10.115 -22.355,-20.039 -4.171,-7.799 1.775,-15.367 4.749,-22.278 -5.406,-9.036 -10.579,-20.078 -6.487,-30.58 4.556,-8.534 10.425,-16.334 16.602,-23.709 6.333,-7.489 17.337,-7.142 25.136,-12.47 10.117,-5.638 15.561,-16.256 20.658,-26.14 10.347,-21.931 15.329,-45.87 23.707,-68.535 7.26,-15.522 28.419,-13.205 41.199,-6.488 -5.676,12.086 -11.236,24.248 -15.831,36.836 9.538,7.337 20.193,13.708 27.646,23.398 5.831,6.834 -4.208,16.334 -11.468,14.595 -8.687,-2.972 -16.641,-7.605 -24.981,-11.274 -11.931,27.453 -27.608,55.755 -55.871,69.154 -9.035,2.972 -14.132,10.926 -17.839,19.189 5.792,3.321 11.274,7.337 17.723,9.422 16.102,-0.58 28.302,-12.82 43.862,-15.176 3.591,17.415 -14.479,27.029 -27.993,32.395 -9.807,4.595 -22.24,1.082 -30.85,8.148 16.256,21.854 45.794,6.911 62.087,-7.066 1.777,1.043 5.328,3.128 7.105,4.131 7.374,-8.571 15.136,-17.298 18.687,-28.224 15.523,-43.864 33.244,-88.653 65.022,-123.519 -7.761,-11.737 -21.429,-16.718 -30.696,-26.719 -4.287,-9.266 8.302,-15.097 15.599,-17.221 18.688,-6.872 26.256,16.604 34.325,28.688 19.77,-13.706 43.09,-20.309 64.597,-30.502 -5.019,-9.151 -12.51,-16.642 -17.066,-26.062 11.815,-3.862 27.492,-15.793 38.611,-4.943 6.719,5.483 11.275,12.973 15.985,20.155 16.526,-6.912 32.704,-14.788 47.648,-24.749 -7.375,-9.384 -16.835,-16.913 -23.593,-26.72 0.078,-5.753 4.634,-13.166 11.121,-11.544 15.059,3.281 29.808,9.073 45.445,8.88 11.893,-7.182 20.001,-18.958 27.183,-30.503 -10.464,-3.708 -21.082,-7.027 -30.89,-12.24 6.796,-12.897 20.967,-16.409 34.442,-16.526 12.704,1.738 16.255,-12.586 21.044,-21.197 -24.673,3.746 -49.153,8.455 -73.478,13.938 -2.703,-2.393 -5.368,-4.71 -8.032,-7.027 -14.711,22.974 -32.857,43.785 -53.399,61.74 4.247,3.436 8.418,6.526 12.664,10.155 -7.104,3.938 -13.359,1.621 -18.456,-4.055 -50.388,43.052 -116.143,65.06 -181.86,68.188 -24.711,2.626 -50.156,3.553 -73.516,12.742 -20.309,7.606 -38.418,20.618 -52.087,37.415 -21.119,26.023 -37.955,55.098 -55.136,83.747 -18.997,27.415 -44.365,52.975 -77.494,61.895 -24.441,8.301 -51.237,2.587 -73.941,-8.147 -0.192,-2.432 -0.617,-7.259 -0.81,-9.653 -23.205,-5.946 -45.369,-32.125 -31.816,-55.986 -14.711,-17.8 -8.997,-44.829 7.916,-58.999 9.305,-8.147 20.386,-14.441 32.78,-16.14 21.545,-3.205 39.074,-18.726 51.16,-36.024 22.434,-33.514 31.739,-73.246 43.516,-111.201 4.749,-14.132 11.467,-29.036 24.826,-36.912 13.399,-8.263 29.693,-5.83 44.519,-8.417 33.4,-5.715 66.335,-21.005 88.614,-47.106 18.495,-26.024 32.627,-55.331 41.855,-85.873 -55.948,32.319 -116.607,61.972 -182.439,64.135 -78.961,4.748 -159.813,-28.65 -211.089,-89.155 -45.484,-53.361 -64.944,-126.297 -56.218,-195.489 3.938,-38.998 19.267,-75.486 31.931,-112.244 8.341,-24.827 5.832,-38.535 -2.432,-63.478 15.329,9.074 31.546,20.658 36.488,38.805 3.977,25.368 -4.557,36.103 -12.742,59.463 15.946,5.675 26.024,18.996 33.707,33.399 -0.887,5.752 -3.204,11.041 -6.138,16.062 -14.634,-4.247 -30.426,-2.549 -43.168,5.985 -6.216,18.919 -6.332,39.151 -6.371,58.92 15.175,-3.127 30.966,0.193 44.171,8.109 5.56,4.286 11.004,12.587 5.714,19.19 -8.493,4.44 -19.111,5.328 -25.715,12.896 -5.173,5.56 -9.42,11.93 -13.9,18.108 7.415,20.697 15.755,41.277 28.611,59.308 11.159,-10.31 23.013,-22.742 38.805,-24.828 9.77,-1.506 10.927,9.152 12.974,15.986 4.208,-0.309 3.86,-5.792 4.981,-8.765 -18.765,-24.403 -35.33,-52.087 -39.268,-83.13 -4.479,-18.92 -9.074,-38.342 -6.062,-57.84 6.872,-39.268 18.958,-79.154 45.29,-110.005 21.662,-31.854 62.281,-42.433 85.37,-72.898 19.77,-24.441 29.925,-56.565 26.835,-87.957 0.155,-6.371 -3.668,-11.583 -6.679,-16.796 -3.784,44.21 -33.245,80.814 -66.836,107.456 -1.429,-1.39 -4.286,-4.093 -5.716,-5.444 6.488,-15.136 16.991,-29.229 16.604,-46.527 4.17,-25.676 -7.953,-49.577 -19.19,-71.701 -12.818,-25.445 -7.915,-54.751 -6.95,-82.01 10.232,-23.438 22.627,-47.725 20.657,-74.096 -0.155,-20.155 -7.684,-38.997 -13.9,-57.801 1.429,-1.352 4.285,-3.978 5.715,-5.329 26.95,22.858 40.271,59.307 38.997,94.212 1.274,30.388 -14.401,58.458 -13.128,88.884 0.077,20.116 8.611,39.422 21.506,54.673 17.839,-22.858 5.985,-51.854 11.082,-77.764 4.17,-21.119 14.749,-41.313 31.159,-55.406 1.815,1.39 5.406,4.169 7.221,5.598 -2.819,13.978 -9.074,27.414 -8.108,42.009 -0.966,19.654 8.416,37.338 14.132,55.562 8.725,29.345 14.285,61.238 5.829,91.316 -6.564,29.693 -24.594,55.793 -46.488,76.413 -23.63,19.421 -51.739,33.32 -71.894,56.874 -49.113,58.302 -50.813,153.712 2.742,209.93 25.521,27.994 62.821,42.666 100.041,45.793 30.426,0.927 60.776,-6.178 88.46,-18.61 30.386,-14.248 55.754,-36.489 82.319,-56.528 49.848,-41.468 100.351,-84.597 161.434,-108.575 35.793,-12.626 73.787,-18.341 111.665,-19.731 65.601,-1.003 130.969,22.473 196.416,8.882 43.786,-7.568 86.952,-24.789 120.507,-54.365 -27.299,-8.224 -57.494,-10.696 -80.815,-28.496 12.434,-7.645 25.677,-14.094 37.492,-22.742 -23.09,-2.201 -46.643,-0.617 -69.346,-6.061 -29.886,-7.375 -58.419,-23.786 -77.57,-48.072 -6.294,-8.572 6.254,-9.808 12.24,-10.116 18.302,-0.695 34.595,-9.769 51.391,-16.063 7.8,-2.935 14.904,-7.413 21.005,-13.05 -59.732,1.659 -124.522,-19.189 -160.199,-69.733 -10.155,-15.406 -23.861,-31.699 -22.665,-51.121 37.376,12.587 77.802,14.171 116.22,5.444 -50.04,-14.788 -98.188,-40.89 -130.429,-82.86 -20.657,-28.728 -32.666,-63.362 -34.712,-98.653 0.58,-5.984 -2.432,-15.637 5.638,-17.722 31.507,33.939 76.258,53.748 122.012,58.419 -17.298,-14.054 -36.45,-25.792 -52.511,-41.314 -41.122,-38.225 -65.756,-93.555 -66.528,-149.658 1.583,-25.29 5.174,-50.89 15.019,-74.404 1.815,-5.907 7.028,-9.421 11.738,-12.819 10.851,59.268 52.859,111.085 108.498,134.098 -59.77,-76.876 -72.164,-186.107 -34.44,-275.338 14.13,5.096 11.505,21.738 16.602,33.206 12.163,34.981 30.078,68.573 55.601,95.716 16.602,19.963 38.495,34.327 59.268,49.5 38.805,24.558 80.081,45.022 122.746,61.972 55.291,24.441 112.63,51.392 152.129,98.807 17.8,21.931 33.939,46.411 38.341,74.867 13.321,43.129 1.621,88.035 -9.614,130.159 -11.236,42.512 -6.14,90.621 20.541,126.569 29.962,-21.931 52.357,-51.74 78.42,-77.802 21.352,-26.951 48.765,-48.149 76.373,-68.343 -6.757,-24.634 -8.34,-51.546 0.387,-75.91 7.065,-17.607 25.406,-32.162 45.213,-28.687 31.854,3.938 53.786,30.27 72.705,53.746 54.905,-0.231 115.487,-3.668 162.864,29.23 13.977,7.953 17.683,26.332 32.549,32.741 32.24,17.029 63.091,36.759 91.354,59.849 8.727,7.104 11.7,19.845 6.834,30.116 -4.555,16.603 -19.614,28.38 -21.274,45.986 -2.78,19.113 -11.776,37.222 -28.418,47.917 -0.078,18.611 -3.05,37.955 -14.633,53.129 -14.557,21.816 -40.852,33.438 -66.374,35.214 -10.463,0.193 -9.846,-13.398 -16.564,-18.495 -13.9,-9.769 -31.469,-15.483 -48.418,-11.816 -34.133,5.175 -59.424,42.281 -51.508,75.95 -0.734,9.923 6.486,17.105 13.745,22.703 28.109,18.959 61.623,28.032 95.023,31.584 49.577,0.386 99.347,-5.56 147.11,-19.074 33.823,-9.035 69.192,-20.001 104.366,-11.042 48.573,8.649 83.053,64.557 65.756,111.431 -1.815,7.415 -9.654,8.11 -15.793,9.461 -3.437,15.367 -11.892,30.387 -27.568,35.792 -4.557,-3.436 -8.418,-7.452 -12.434,-11.274 -8.185,15.599 -21.004,30.542 -39.691,32.279 -1.661,-6.023 -2.82,-12.086 -4.75,-17.916 -24.403,-5.328 -49.655,-3.475 -74.288,-7.297 -61.894,7.491 -117.186,39.113 -176.223,57.145 29.576,12.124 59.152,24.712 86.296,41.855 30.156,22.973 53.207,59.732 49.732,98.767 -5.521,22.935 -13.089,49.886 -36.643,60.389 -3.127,-5.522 -6.023,-11.159 -8.802,-16.796 -11.159,17.607 -28.572,38.496 -52.126,31.932 0.27,-3.321 0.811,-9.962 1.081,-13.283l-36.501 -3.154c-1.655,1.427 -21.557,-19.843 -23.442,-20.972 -18.186,-10.893 -38.301,-28.012 -47.242,-37.922l1.351 -34.789zm-1312.363 247.306c4.015,-7.839 16.101,-19.846 23.978,-10.078 11.892,13.167 2.703,34.364 -12.896,39.77 -8.379,-7.529 -16.41,-17.877 -11.082,-29.692zm63.438 -97.3c19.654,-1.661 30.58,25.985 17.337,39.421 -6.718,8.572 -20.426,14.17 -29.461,5.56 -17.143,-11.93 -8.881,-43.129 12.124,-44.981zm386.269 -46.373c6.332,-7.027 20.734,0.078 18.264,9.498 -6.14,6.795 -15.638,4.71 -23.67,4.595 1.545,-4.75 1.776,-10.348 5.406,-14.093zm-251.167 -24.943c6.14,-8.804 12.587,-17.414 19.692,-25.484 2.393,29.885 -2.202,62.512 -22.743,85.718 -10.501,9.267 -25.83,4.208 -38.457,5.482 -13.436,-1.158 -22.934,10.117 -33.398,16.526 -12.163,-11.12 -0.773,-26.527 8.494,-35.484 9.769,-9.807 27.337,-6.564 34.711,-19.189 7.761,-11.97 19.075,-21.159 31.701,-27.569zm1084.131 -153.596c11.507,-3.128 26.719,4.324 27.839,17.105 -2.587,14.903 -25.908,23.707 -36.102,10.81 -5.56,-9.266 -2.278,-23.823 8.263,-27.915zm-65.562 -16.758c10.348,-6.641 25.097,-0.308 29.151,10.888 5.599,17.067 -17.182,34.751 -32.163,24.403 -11.467,-8.533 -9.15,-28.379 3.012,-35.291zm-591.45 2.973c3.861,-5.405 10.579,-11.081 17.067,-5.907 11.158,6.333 26.101,4.362 35.174,14.517 10.85,10.465 14.441,26.372 11.623,40.891 -5.019,9.845 -17.183,6.061 -25.986,7.104 -20.387,2.239 -36.72,-21.507 -29.73,-40.233 -3.051,-5.329 -6.179,-10.618 -8.148,-16.372zm281.825 -11.197c11.197,-17.993 43.746,-0.579 36.488,18.881 -5.058,9.19 -15.367,15.445 -25.715,16.41 -5.136,-2.123 -9.847,-4.943 -14.557,-7.722 1.738,-9.152 1.93,-18.495 3.784,-27.569zm-561.294 -17.143c9.19,-5.6 13.012,7.336 15.135,13.938 9.305,32.55 32.975,60.582 34.171,95.409 -0.54,12.433 -1.891,25.831 -8.494,36.681 -3.437,5.406 -10.811,3.32 -14.441,-0.617 -3.359,-29.809 -16.95,-57.57 -34.325,-81.664 -12.703,10.27 -23.669,23.244 -29.616,38.612 -0.694,5.868 1.777,11.544 3.129,17.22 15.096,8.997 33.051,18.417 38.147,36.681 6.101,16.024 3.475,35.446 -9.035,47.762 -5.907,6.487 -17.297,7.105 -23.32,0.502 -9.924,-8.224 -9.538,-21.931 -13.013,-33.282 -2.317,-10.773 -8.533,-20.079 -14.865,-28.882 -18.765,27.221 -13.862,62.01 -1.66,90.698 -6.719,7.298 -15.754,14.209 -25.909,14.905 -7.722,-5.291 -3.32,-16.526 -5.984,-24.287 -13.051,-44.635 1.66,-92.012 23.938,-131.048 10.812,-15.097 20.426,-30.889 30.387,-46.487 12.626,-14.828 23.476,-31.083 35.755,-46.141zm-26.68 147.534c-7.735,10.572 -5.971,29.377 15.842,26.952 -3.281,-6.411 -10.669,-22.087 -15.842,-26.952zm478.975 -146.106c3.821,-3.513 7.605,-7.028 11.544,-10.348 27.645,21.931 46.913,52.048 72.087,76.49 -5.367,13.9 -23.09,7.104 -34.364,9.382 -21.082,-21.7 -38.92,-46.952 -49.267,-75.524zm-102.939 -10.773c5.444,-4.208 10.772,-8.533 16.177,-12.78 34.712,25.252 50.235,67.185 66.722,105.139 3.475,6.873 -5.986,14.595 -12.665,12.549 -17.916,-3.244 -20.271,-25.253 -28.418,-38.38 -14.402,-21.932 -26.874,-45.021 -41.816,-66.528zm-263.369 -42.665c7.529,-4.247 15.869,0.27 20.271,6.795 -3.783,13.051 -4.016,26.294 -0.694,39.461 -0.541,26.488 -4.595,53.362 -15.098,77.841 -2.51,2.896 -7.838,11.158 -11.66,5.56 -6.333,-2.703 -4.325,-9.768 -3.746,-15.02 4.556,-25.096 -6.679,-49.346 -17.414,-71.353 -5.096,-19.654 7.955,-40.349 28.341,-43.284zm851.846 7.955c1.853,-16.334 11.467,-32.281 24.518,-42.281 0.811,16.333 -3.166,43.245 -24.518,42.281zm-466.156 -56.219c4.673,-9.537 10.85,-21.276 23.205,-21.005 72.304,5.635 45.084,55.707 60.158,94.945 -3.515,3.823 -7.685,9.46 -13.63,7.105 -12.781,-4.711 -17.029,-18.92 -25.445,-28.264 -9.075,-6.641 -21.546,-7.606 -29.346,-16.062 -9.46,-10.001 -11.081,-24.171 -14.942,-36.719zm-180.547 -20.85c6.834,-1.082 15.406,-0.231 19.036,6.679 11.776,17.994 10.038,41.199 21.004,59.617 4.633,7.568 13.63,12.78 15.252,22.047 0.076,5.79 -3.243,14.093 -10.155,13.86 -22.549,-4.284 -44.21,-13.59 -67.415,-14.015 -7.337,-0.309 -17.414,-7.259 -12.859,-15.521 6.525,-15.291 17.028,-28.766 20.696,-45.254 4.016,-9.305 4.711,-21.97 14.441,-27.413zm415.034 -54.868c0.193,-6.061 3.437,-11.042 6.912,-15.675 25.483,21.391 60.774,33.785 75.639,65.601 5.444,11.737 15.638,26.062 5.213,38.031 -10.657,-7.761 -19.267,-17.722 -28.843,-26.641 -10.85,-8.417 -23.938,-13.205 -36.217,-18.997 -5.136,14.749 -8.07,30.31 -8.571,45.947 -0.812,4.942 3.242,8.379 6.95,10.889 11.196,-1.738 22.2,-8.649 33.745,-4.789 20.233,5.406 41.199,21.778 40.35,44.713 1.08,8.224 -4.75,16.912 -13.36,17.491 -24.364,5.174 -42.048,-16.989 -64.751,-21.352 0.192,21.429 12.664,41.739 27.259,56.759 22.587,7.375 40.116,-10.773 60.388,-16.487 9.614,9.381 18.032,19.962 25.059,31.429 -30.233,11.391 -62.706,27.414 -95.68,17.878 -28.727,-27.029 -40.502,-67.262 -47.723,-104.986 -2.51,-40.348 6.409,-80.311 13.63,-119.811zm41.507 121.936c7.26,7.259 17.028,11.505 26.796,14.325 -2.123,-8.611 -6.95,-18.65 -16.911,-19.655 -4.286,0.387 -14.518,-2.199 -9.885,5.33zm-99.077 -152.786c1.236,-7.105 1.391,-15.638 8.611,-19.499 5.753,0.155 11.236,5.059 10.966,11.082 -0.503,34.75 -16.565,66.836 -18.998,101.355 -0.733,18.959 -5.559,38.109 -0.888,56.913 1.352,10.927 11.082,24.325 -2.47,31.236 -13.245,-15.56 -22.395,-34.093 -36.064,-49.305 -5.56,-7.221 -12.394,-13.554 -16.564,-21.701 -1.853,-7.375 1.313,-14.826 2.858,-21.97 12.277,-5.868 22.857,-15.251 28.109,-28.031 8.34,-19.963 21.236,-38.303 24.44,-60.08zm-140.931 -20.232c11.042,-12.202 13.243,-32.163 30.155,-38.418 6.256,19.344 -5.444,38.92 -15.676,54.75 -17.684,22.318 -38.805,41.662 -59.462,61.2 -1.544,-4.982 -7.375,-10.194 -3.359,-15.368 8.07,-16.139 15.252,-32.665 20.193,-50.002 -0.192,-8.726 -2.355,-17.838 0.348,-26.255 5.599,-9.499 17.375,-11.082 27.068,-13.669 0.539,9.229 0.539,18.495 0.733,27.762zm79.423 -30.503c1.584,-5.175 9.808,-11.198 14.364,-5.599 7.645,5.946 5.753,16.68 5.675,25.174 -2.315,15.6 -2.624,32.666 -12.278,45.91 -6.718,9.112 -9.035,21.236 -17.954,28.65 -10.812,8.726 -21.739,17.297 -33.128,25.29 -1.159,-2.78 -3.437,-8.34 -4.595,-11.082 25.059,-31.197 40.271,-69.422 47.916,-108.343zm186.339 -37.878c4.634,-3.283 9.382,-6.41 14.132,-9.538 12.934,12.28 26.758,25.021 33.322,42.049 2.857,5.946 -4.788,9.073 -9.074,10.966 -13.399,-13.862 -27.762,-27.26 -38.38,-43.477zm-1290.934 4.324c-7.684,-1.814 -4.054,-13.668 3.282,-11.274 7.529,1.352 3.513,13.321 -3.282,11.274zm1478.662 -52.55c1.931,-10.579 7.144,-19.923 17.183,-24.711 3.243,4.286 6.68,8.534 9.151,13.359 -5.868,8.92 -16.371,11.12 -26.334,11.352zm104.445 -65.137c18.07,-0.502 35.676,4.556 53.322,7.8 -1.197,3.088 -2.47,6.177 -3.784,9.266 -17.452,-0.888 -34.904,-3.552 -52.202,-6.062 0.154,-3.861 1.042,-7.529 2.664,-11.004zm-1610.56 -9.691c7.028,0.424 13.668,3.089 18.148,8.841 11.505,12.626 27.955,25.407 26.41,44.442 0.772,8.495 -3.09,16.139 -7.723,22.935 -11.274,-15.444 -19.344,-32.857 -28.765,-49.422 -4.827,-8.186 -7.027,-17.453 -8.07,-26.796zm1422.792 3.513c7.954,-4.827 18.147,-10.309 27.144,-4.517 -2.394,12.394 -14.788,19.035 -21.043,29.421 -11.699,18.843 -19.846,42.396 -11.545,64.211 18.688,-21.815 38.766,-43.707 65.987,-54.828 1.892,1.236 5.637,3.668 7.53,4.904 -3.785,10.425 -11.43,18.957 -15.098,29.46 -6.062,14.325 -0.733,29.924 -1.582,44.867 -7.375,-5.019 -10.155,-13.399 -13.051,-21.275 -15.136,12.162 -28.844,27.453 -34.21,46.566 -2.703,6.717 -3.514,17.375 -12.666,18.262 -5.289,-1.544 -10.501,-4.016 -14.246,-8.07 -15.986,-20.579 -27.221,-46.102 -24.325,-72.666 3.088,-30.503 19.575,-61.277 47.105,-76.335zm198.115 -17.646c4.789,-5.289 11.739,-2.277 17.723,-1.351 11.583,2.587 23.785,4.44 34.402,10.194 0.039,1.776 0.117,5.328 0.155,7.104 -17.8,-1.042 -35.599,-4.169 -52.743,-8.919 0.117,-1.776 0.348,-5.289 0.463,-7.028zm-1562.758 1.739c2.355,-16.951 4.093,-34.867 13.436,-49.655 5.599,31.005 30.078,59.153 20.31,91.972 -6.023,15.715 -11.197,32.627 -21.931,45.871 -1.931,0.308 -5.791,0.887 -7.722,1.157 -2.625,-9.382 2.123,-18.34 3.32,-27.49 2.356,-21.12 -10.348,-40.775 -7.413,-61.855zm1401.44 -60.273c14.634,5.985 27.723,15.831 43.592,18.765 20.039,3.707 36.989,15.56 56.103,22.086 4.054,9.962 -7.839,9.267 -14.209,10.193 -17.028,1.506 -32.511,-7.259 -48.92,-10.231 6.872,15.058 17.76,29.729 34.788,33.668 14.982,0.116 26.218,-11.467 32.588,-23.978 11.081,-11.313 28.341,-13.205 43.438,-12.162 -8.34,16.101 -23.013,27.298 -35.368,40.078 -13.36,12.704 -32.24,25.407 -51.354,17.53 -35.406,-10.542 -50.503,-47.955 -62.242,-79.501 -3.745,-5.56 -1.389,-11.313 1.584,-16.448zm-127.263 115.525c-3.9,-45.021 17.838,-92.165 56.257,-116.568 2.394,3.244 4.903,6.487 6.91,10.116 -5.289,8.264 -11.969,15.56 -17.413,23.746 15.252,-11.12 32.241,-22.316 51.546,-23.591 1.623,10.695 -9.459,16.565 -14.942,24.248 -12.626,11.777 -15.29,30.348 -28.341,41.777 -6.835,7.606 -16.217,12.009 -24.325,17.993 -9.962,7.221 -15.329,18.766 -23.591,27.646 -2.278,-1.584 -4.287,-3.358 -6.101,-5.367zm174.485 -136.53c5.753,-7.336 15.444,-5.714 23.591,-6.409 17.568,-0.348 35.678,-5.869 52.936,-0.502 15.407,5.483 19.693,22.588 26.913,35.445 -14.093,3.012 -27.84,7.104 -41.624,11.158 -17.606,0.116 -29.769,-14.98 -37.916,-28.804 -8.417,-2.432 -18.649,-2.856 -23.9,-10.888zm46.655 19.41c5.752,0.232 27.409,0.309 33.2,0.155 -4.859,-13.914 -26.57,-18.863 -33.2,-0.155zm-555.785 -194.435c1.969,-1.777 5.945,-5.329 7.915,-7.144 34.635,14.364 70.234,39.731 78.15,78.73 10.811,44.789 -8.495,89.346 -5.908,134.406 2.742,58.573 26.14,118.227 71.393,156.917 8.803,8.34 20.309,14.17 26.796,24.788 -2.124,3.552 -4.402,6.988 -6.796,10.347 -22.047,-9.42 -41.507,-23.552 -61.508,-36.525 -9.807,-5.406 -11.351,-19.268 -22.201,-23.167 -19.19,-7.8 -35.871,-20.58 -51.122,-34.288 -6.101,-4.595 -2.78,-12.664 2.664,-15.985 9.692,1.082 18.842,4.672 28.418,6.371 -8.07,-16.255 -19.691,-30.348 -32.395,-43.168 -15.213,-15.135 -26.371,-33.553 -39.422,-50.426 3.63,-2.278 7.375,-4.247 11.275,-5.946 13.127,3.861 24.517,11.853 37.028,17.337 -5.561,-27.183 -14.363,-53.709 -27.028,-78.459 -6.564,-12.278 -17.259,-21.545 -25.136,-32.896 2.162,-1.506 6.526,-4.48 8.687,-5.986 12.472,4.865 22.935,13.708 33.4,21.931 8.069,6.025 12.857,15.986 22.2,20.349 4.055,-31.12 -0.308,-63.94 -16.331,-91.278 -9.538,-18.34 -25.407,-31.892 -40.079,-45.908zm-1027.991 -52.319c3.784,-15.831 0.695,-36.14 16.41,-46.295 7.877,13.051 -0.116,28.11 3.398,42.086 7.22,36.874 36.295,63.054 59.539,90.506 19.692,22.355 31.237,52.974 27.259,82.859 -3.475,27.724 -15.019,53.516 -28.302,77.765 -12.973,24.788 -12.78,53.245 -8.224,80.118 -17.376,-9.846 -31.159,-24.904 -43.592,-40.194 -10.695,-14.364 -12.588,-32.55 -14.75,-49.733 -9.074,9.692 -8.571,23.901 -10.039,36.257 0.425,19.807 1.235,40.464 10.078,58.651 9.382,22.664 26.216,42.434 29.46,67.338 -13.166,-8.611 -23.746,-25.986 -41.545,-22.704 -9.267,-15.907 -20.31,-30.812 -27.492,-47.801 -13.167,-32.086 -16.255,-68.303 -7.336,-101.933 8.186,-34.21 25.909,-68.42 17.491,-104.405 -1.428,-12.705 -10.425,-24.171 -8.456,-37.106 1.66,-0.194 5.019,-0.579 6.679,-0.735 26.605,27.724 45.37,65.138 43.091,104.367 -1.236,15.098 1.892,30.696 12.008,42.473 14.634,-25.985 27.028,-57.26 17.761,-87.146 -5.134,-26.218 -23.823,-46.333 -35.175,-69.771 -12.162,-22.78 -19.112,-48.728 -18.263,-74.597zm1747.669 593.535c-11.661,19.692 -23.128,40.735 -41.546,54.944 -1.661,-2.163 -4.942,-6.409 -6.602,-8.572 3.242,-13.283 9.382,-25.793 11.428,-39.383 -13.166,2.008 -32.974,-3.09 -39.113,12.24 -8.225,19.382 -21.082,37.26 -37.531,50.425 -3.243,-1.466 -6.37,-2.973 -9.42,-4.594 6.139,-17.414 15.251,-36.063 12.51,-54.79 -9.924,-1.273 -19.924,-1.351 -29.809,-2.548 -10.772,19.769 -24.98,37.493 -40.966,53.284 -7.49,5.059 -10.425,-5.869 -6.835,-10.927 6.758,-17.066 10.657,-35.29 4.827,-53.206 -7.607,-3.129 -15.097,-6.488 -22.395,-10.155 -5.908,8.34 -12.625,16.486 -14.981,26.68 -8.803,34.326 -23.785,67.068 -44.365,95.911 18.688,6.718 36.875,14.788 55.447,22.008 6.525,-17.336 17.877,-32.086 29.268,-46.411 2.315,-3.976 6.409,-5.714 10.81,-6.139 3.784,14.982 -1.506,32.163 8.302,45.716 24.557,-2.818 46.333,-15.522 69.809,-22.394 35.523,-12.897 71.161,-26.681 108.807,-32.01 18.186,-2.78 36.179,3.166 54.327,3.09 6.756,-1.506 17.683,-10.349 8.686,-16.14 -13.281,-16.603 -34.865,-11.661 -53.205,-12.974 0.231,-2.085 0.734,-6.216 0.965,-8.262 15.83,-12.704 38.109,-16.023 56.681,-7.182 18.997,7.993 21.391,30.85 29.847,47.222 5.792,2.934 11.583,6.061 17.375,9.111 10.348,-20.656 0.773,-43.437 -14.866,-58.264 -1.736,-10.348 11.237,-6.139 16.874,-3.822 19.422,8.34 28.07,28.572 35.02,47.067 2.201,-8.726 7.915,-17.414 4.75,-26.603 -4.015,-20.348 -21.932,-33.244 -39.384,-41.817 1.12,-2.78 3.282,-8.34 4.402,-11.12 12.548,2.704 24.595,7.375 36.565,12.047 -19.035,-27.838 -59.037,-30.349 -89.231,-23.939 -28.92,6.757 -57.454,15.135 -86.451,21.507zm-1657.356 128.692c-3.321,15.56 -13.9,29.228 -13.283,45.715 15.484,15.368 34.944,25.948 54.326,35.523 9.035,-11.854 22.627,-26.874 39.229,-20.31 11.314,7.298 10.465,23.167 13.321,34.982 17.492,1.313 34.943,5.793 52.55,3.437 11.623,-1.467 23.168,-3.359 34.828,-4.749 0.579,-4.44 1.197,-8.881 1.815,-13.244 -10.889,-11.352 -21.198,-23.707 -24.827,-39.384 -18.071,2.626 -36.295,1.429 -54.133,-2.046 -9.189,6.911 -18.843,16.912 -31.623,13.398 -11.932,-1.119 -11.197,-17.028 -10.194,-25.715 -15.29,-7.915 -29.692,-17.453 -43.206,-28.109 -6.216,1.853 -12.626,2.973 -18.803,0.502z"/>
  </g>
 </g>
</svg>
