<?xml version="1.0" encoding="UTF-8"?>
<!DOCTYPE svg PUBLIC "-//W3C//DTD SVG 1.1//EN" "http://www.w3.org/Graphics/SVG/1.1/DTD/svg11.dtd">
<!-- Creator: CorelDRAW 2021 (64-Bit) -->
<svg xmlns="http://www.w3.org/2000/svg" xml:space="preserve" width="1312px" height="540px" version="1.1" style="shape-rendering:geometricPrecision; text-rendering:geometricPrecision; image-rendering:optimizeQuality; fill-rule:evenodd; clip-rule:evenodd"
viewBox="0 0 192.941 79.441"
 xmlns:xlink="http://www.w3.org/1999/xlink"
 xmlns:xodm="http://www.corel.com/coreldraw/odm/2003">
 <defs>
  <style type="text/css">
   <![CDATA[
    .fil0 {fill:black;fill-rule:nonzero}
   ]]>
  </style>
 </defs>
 <g id="__x0023_Layer_x0020_1">
  <metadata id="CorelCorpID_0Corel-Layer"/>
  <path class="fil0" d="M170.284 0.118c1.057,-0.199 2.243,-0.199 3.177,0.414 1.06,0.723 1.556,2.101 1.388,3.351 -0.365,2.454 -2.044,4.577 -4.185,5.766 -3.541,1.985 -7.156,3.838 -10.697,5.826 -0.993,0.502 -2.157,1.115 -3.278,0.686 -1.14,-0.615 -0.977,-2.193 -0.395,-3.149 1.1,-1.899 2.619,-3.511 4.065,-5.146 1.994,-1.982 3.881,-4.102 6.176,-5.747 1.13,-0.855 2.337,-1.694 3.749,-2.001zm-70.298 25.531c1.057,-0.837 2.31,-1.495 3.667,-1.645 1.476,-0.105 2.879,0.912 3.409,2.269 0.506,1.247 0.659,2.617 0.69,3.955 -0.227,4.874 -0.895,9.763 -0.521,14.643 1.424,-0.591 2.61,-1.645 4.062,-2.169 1.201,-0.416 2.705,0.248 2.867,1.59 0.071,1.713 -1.048,3.195 -2.199,4.35 -1.18,1.247 -2.877,1.805 -4.102,2.984 -0.346,1.688 0.272,3.388 0.674,5.018 0.64,2.711 2.092,5.122 3.434,7.53 1.112,1.758 1.976,3.777 1.844,5.897 -0.208,1.593 -0.901,3.268 -2.337,4.123 -1.532,0.989 -3.6,0.854 -5.11,-0.107 -2.178,-1.357 -3.566,-3.695 -4.261,-6.118 -1.088,-3.89 -1.155,-7.956 -1.354,-11.962 -1.471,0.07 -2.469,1.243 -3.615,2.003 -4.641,3.223 -9.227,6.537 -14.012,9.552 -1.801,1.06 -3.704,2.12 -5.817,2.328 -1.71,0.184 -3.624,-0.509 -4.497,-2.056 -0.763,-1.317 -0.699,-2.922 -0.445,-4.368 0.613,-2.549 1.933,-4.849 3.22,-7.107 3.952,-6.691 8.605,-12.931 13.485,-18.965 2.056,-2.727 4.359,-5.245 6.632,-7.785 1.324,-1.427 2.766,-2.744 4.286,-3.96zm-3.027 13.472c-3.443,4.525 -6.595,9.285 -9.346,14.263 -0.316,0.656 -0.922,1.428 -0.411,2.148 0.892,0.156 1.685,-0.38 2.46,-0.729 2.929,-1.529 5.775,-3.214 8.667,-4.813 0.689,-0.401 1.491,-0.708 1.966,-1.378 0.346,-0.76 0.206,-1.636 0.291,-2.445 0.186,-5.887 3.073,-15.607 -3.627,-7.046zm-5.309 -18.193c1.465,-0.432 3.376,-0.925 4.589,0.297 -1.038,2.962 -3.308,5.248 -5.676,7.208 -3.927,3.655 -9.089,5.533 -14.122,7.101 -1.333,0.46 -3.088,0.57 -3.796,1.982 -2.518,7.095 -4.635,14.364 -5.661,21.839 -0.616,3.195 -0.389,6.687 -2.184,9.545 -1.057,1.802 -2.803,3.355 -4.929,3.667 -2.239,0.349 -4.552,-1.283 -5.039,-3.483 -0.907,-3.621 1.004,-7.07 2.23,-10.366 2.555,-6.112 5.091,-12.239 7.937,-18.224 0.42,-0.76 0.591,-1.618 0.591,-2.479 -1.758,-0.251 -3.575,0.252 -5.293,-0.312 -1.915,-0.597 -3.912,-1.406 -5.162,-3.057 -0.649,-0.84 -0.959,-2.114 -0.254,-3.015 0.637,-0.818 1.755,-0.925 2.714,-1.014 7.707,-0.557 15.283,-2.383 22.54,-5.005 3.943,-1.299 7.643,-3.214 11.515,-4.684zm73.574 -2.411c3.293,-0.827 6.675,-1.489 10.087,-1.29 1.434,0.092 2.941,0.668 3.784,1.893 0.968,1.367 0.946,3.242 0.297,4.74 -0.922,2.046 -2.754,3.737 -4.981,4.212 -1.912,0.373 -3.876,0.082 -5.805,0.248 -4.433,0.346 -8.964,1.593 -12.462,4.448 -1.366,1.053 -2.692,4.028 -0.34,4.466 2.524,0.65 4.95,-0.637 7.33,-1.283 1.247,-0.294 3.002,-0.374 3.661,0.983 0.689,1.691 -0.147,3.581 -1.385,4.782 -4.098,3.768 -8.427,7.288 -12.403,11.19 -0.925,1.036 -2.163,2.148 -2.056,3.67 -0.003,0.925 0.769,1.606 1.526,2.013 4.414,2.273 9.224,3.627 14.021,4.837 1.241,0.27 2.539,0.616 3.814,0.349 0.799,-0.272 1.1,-1.228 0.79,-1.973 -0.876,-2.429 -3.284,-3.902 -4.224,-6.295 -0.558,-1.384 -0.052,-3.247 1.44,-3.777 2.227,-0.94 4.601,0.123 6.727,0.852 4.203,1.712 8.087,4.187 11.506,7.168 2.028,1.878 3.89,4.022 5.085,6.534 1.244,2.766 1.4,6.158 -0.236,8.801 -1.25,2.218 -3.814,3.293 -6.243,3.572 -3.848,0.322 -7.609,-0.802 -11.206,-2.031 -8.534,-2.999 -16.729,-6.883 -24.715,-11.111 -2.013,-1.041 -4.151,-2.126 -5.465,-4.043 -1.56,-2.191 -1.48,-5.263 -0.178,-7.552 1.434,-2.554 3.777,-4.386 5.897,-6.344 1.553,-1.424 3.379,-2.561 4.715,-4.215 -0.463,-0.276 -0.907,-0.723 -1.495,-0.607 -2.083,0.221 -4.464,-0.085 -5.956,-1.706 -1.467,-1.66 -1.501,-4.044 -1.265,-6.127 0.656,-4.141 3.413,-7.591 6.565,-10.195 3.851,-3.041 8.486,-4.892 13.17,-6.209zm-18.255 -2.537c1.094,-0.56 2.699,-0.272 3.002,1.07 0.257,1.835 -0.769,3.575 -1.801,5.014 -4.491,5.916 -11.362,9.515 -18.353,11.62 -1.403,0.478 -3.275,0.79 -3.746,2.447 -0.53,2.273 -0.08,4.648 0.165,6.936 0.028,0.781 1.097,0.597 1.584,0.352 3.176,-1.387 6.041,-3.376 9.089,-5.015 1.136,-0.618 2.555,-1.047 3.805,-0.505 1.301,0.646 1.675,2.34 1.265,3.642 -0.622,1.992 -1.995,3.83 -3.931,4.696 -2.613,1.287 -5.382,2.212 -8.121,3.189 -0.64,0.258 -1.427,0.371 -1.844,0.984 -0.294,0.796 -0.046,1.669 0.138,2.469 0.714,2.641 1.544,5.25 2.487,7.818 0.803,2.349 1.986,4.684 1.857,7.235 -0.077,1.446 -0.417,3.051 -1.633,3.983 -0.968,0.864 -2.423,0.959 -3.572,0.413 -2.098,-0.903 -3.412,-2.953 -4.105,-5.051 -1.538,-4.592 -2.414,-9.368 -3.544,-14.067 -1.403,-6.063 -2.69,-12.177 -3.213,-18.39 -0.135,-2.331 0.281,-4.907 1.96,-6.656 1.391,-1.511 3.422,-2.188 5.398,-2.512 6.663,-1.146 12.924,-3.931 18.726,-7.328 1.455,-0.793 2.822,-1.771 4.387,-2.344zm42.44 -2.943c-0.058,-0.564 0.511,-0.745 0.968,-0.644 0.364,0.873 0.567,1.805 0.87,2.705 0.227,-0.854 0.407,-1.718 0.6,-2.579 0.362,-0.006 0.726,-0.012 1.094,-0.012 -0.018,1.28 -0.037,2.564 -0.031,3.847 -0.159,-0.009 -0.478,-0.027 -0.634,-0.033 -0.009,-0.8 -0.012,-1.6 -0.043,-2.396 -0.278,0.796 -0.53,1.608 -0.775,2.417 -0.141,0 -0.419,0.003 -0.557,0.006 -0.205,-0.827 -0.411,-1.654 -0.65,-2.469 -0.076,0.815 -0.113,1.633 -0.144,2.451 -0.245,-0.016 -0.49,-0.028 -0.729,-0.04 0.003,-1.085 -0.055,-2.172 0.031,-3.253zm-3.272 -0.536c0.953,0.012 1.909,0.021 2.864,0.045 -0.021,0.154 -0.064,0.46 -0.085,0.613 -0.267,0 -0.8,-0.003 -1.069,-0.006 0,1.057 -0.004,2.117 -0.01,3.174 -0.171,0.003 -0.517,0.012 -0.692,0.015 -0.003,-1.069 -0.006,-2.138 -0.006,-3.204 -0.254,-0.003 -0.766,-0.009 -1.02,-0.013 0.003,-0.156 0.012,-0.468 0.018,-0.624zm-146.794 -1.557c3.226,-1.023 6.767,-1.565 10.085,-0.625 1.734,0.466 3.158,1.918 3.514,3.692 0.573,2.444 -0.54,4.871 -1.731,6.948 -1.587,2.426 -3.639,4.549 -5.903,6.353 -1.363,1.051 -2.858,2.438 -4.721,2.166 -1.182,-0.15 -2.071,-1.468 -1.467,-2.586 0.992,-2.092 3.14,-3.532 3.706,-5.863 0.077,-0.527 -0.22,-1.039 -0.634,-1.339 -1.191,-0.334 -2.45,-0.061 -3.612,0.27 -5.367,1.685 -10.397,4.279 -15.212,7.159 -2.567,1.654 -5.281,3.238 -7.236,5.637 -0.708,0.802 -0.937,2.208 -0.055,2.977 1.238,1.078 3.02,0.864 4.543,0.867 5.879,-0.456 11.524,-2.288 17.167,-3.887 3.091,-0.702 6.341,-1.578 9.5,-0.785 3.559,0.779 6.347,3.903 7.061,7.429 0.968,3.704 0.171,7.674 -1.615,11.001 -1.878,3.483 -4.586,6.457 -7.566,9.031 -4.666,4.123 -9.877,7.575 -15.234,10.718 -5.07,2.963 -10.284,5.713 -15.734,7.91 -2.833,0.962 -5.878,1.829 -8.887,1.222 -2.454,-0.432 -4.463,-2.454 -5.06,-4.846 -0.809,-2.993 0.41,-6.234 2.545,-8.378 2.047,-2.258 4.984,-3.312 7.653,-4.617 5.348,-2.549 10.703,-5.171 15.476,-8.718 1.213,-0.846 2.695,-2.043 4.252,-1.345 1.044,0.459 0.962,1.829 0.505,2.687 -1.142,2.052 -2.916,3.639 -4.509,5.327 -0.91,0.983 -2.01,1.963 -2.145,3.382 0.224,0.107 0.668,0.315 0.892,0.419 3.158,-1.096 6.032,-2.895 8.58,-5.045 3.995,-3.122 7.778,-6.648 10.517,-10.955 0.94,-1.528 1.826,-3.418 1.127,-5.22 -0.683,-1.651 -2.65,-2.15 -4.273,-2.107 -4.954,0.009 -9.683,1.697 -14.459,2.8 -3.845,0.882 -7.625,2.205 -11.586,2.441 -3.547,0.199 -7.37,-0.805 -9.83,-3.495 -2.028,-1.979 -2.874,-5.073 -2.01,-7.787 0.873,-3.061 3.25,-5.349 5.68,-7.251 4.353,-3.263 9.165,-5.827 13.975,-8.336 5.431,-2.711 10.961,-5.259 16.701,-7.251z"/>
 </g>
</svg>
