<?xml version="1.0" encoding="UTF-8"?>
<!DOCTYPE svg PUBLIC "-//W3C//DTD SVG 1.1//EN" "http://www.w3.org/Graphics/SVG/1.1/DTD/svg11.dtd">
<!-- Creator: CorelDRAW 2021 (64-Bit) -->
<svg xmlns="http://www.w3.org/2000/svg" xml:space="preserve" width="1691px" height="1751px" version="1.1" style="shape-rendering:geometricPrecision; text-rendering:geometricPrecision; image-rendering:optimizeQuality; fill-rule:evenodd; clip-rule:evenodd"
viewBox="0 0 655.384 678.517"
 xmlns:xlink="http://www.w3.org/1999/xlink"
 xmlns:xodm="http://www.corel.com/coreldraw/odm/2003">
 <defs>
  <style type="text/css">
   <![CDATA[
    .fil0 {fill:white}
   ]]>
  </style>
 </defs>
 <g id="__x0023_Layer_x0020_1">
  <metadata id="CorelCorpID_0Corel-Layer"/>
  <path class="fil0" d="M648.575 289.943c1.802,5.629 2.812,11.306 3.663,17.164 1.53,9.272 2.655,18.615 2.499,28.03 -0.119,7.225 -2.656,13.935 -6.798,19.179 0.261,2.829 0.429,5.697 0.439,8.64 0.021,6.321 0.902,10.247 0.113,16.308 -0.4,15.047 -3.165,29.994 -7.777,44.283 -2.638,8.635 -5.413,14.945 -13.149,20.543l-0.624 0.451 -0.648 0.413c-3.05,1.943 -6.301,3.224 -9.605,3.897 -0.895,2.17 -1.846,4.321 -2.859,6.45 -0.752,1.579 -1.472,3.173 -2.213,4.756l-5.88 12.564 -1.015 0.159c-5.782,9.527 -12.748,18.298 -20.323,26.523 -2.765,3 -5.708,5.836 -8.817,8.479 -4.105,3.737 -8.418,7.206 -13.114,10.182 -7.01,4.589 -14.718,5.56 -21.71,3.884 -0.476,0.379 -0.953,0.757 -1.431,1.135l-0.328 0.259 -0.336 0.249c-7.484,5.536 -14.671,10.797 -23.093,14.813 -5.103,2.605 -10.587,3.519 -15.857,3.004 -0.77,0.795 -1.548,1.546 -2.327,2.315 -1.673,4.966 -3.15,9.723 -5.59,14.667 -8.72,18.66 -24.098,32.637 -41.643,42.927 -1.479,0.867 -5.185,3.339 -5.811,5.032 -3.505,9.478 -7.056,18.402 -12.764,26.824 -8.401,12.914 -20.263,23.161 -33.854,30.182l-0.239 1.441 -15.048 4.912c-11.221,3.662 -22.2,6.76 -34.002,7.373 -4.97,0.777 -9.581,0.832 -14.65,1.363l-1.133 0.119 -1.138 0.019c-3.727,0.063 -6.891,0.097 -10.235,-0.404 -9.113,-0.169 -17.87,-1.568 -26.911,-3.026l-0.877 -0.141 -0.865 -0.201c-13.172,-3.055 -25.817,-6.897 -37.515,-13.844 -15.331,-8.57 -27.631,-21.978 -35.504,-37.625 -2.714,-5.102 -4.304,-10.166 -6.62,-15.276 -0.873,-1.527 -2.258,-3.861 -3.168,-4.712 -4.068,-2.757 -8.257,-5.339 -12.348,-8.063 -15.194,-10.112 -27.438,-24.465 -34.43,-41.363 -1.643,-3.615 -2.694,-7.1 -3.906,-10.658 -0.66,-0.629 -1.388,-1.272 -2.065,-1.87 -5.659,0.559 -11.534,-0.485 -16.88,-3.248 -8.802,-4.191 -16.438,-9.653 -24.3,-15.362l-7.758 4.896 -13.991 -9.047c-16.204,-10.478 -29.534,-24.826 -40.001,-40.956 -6.106,-9.024 -11.142,-18.699 -15.164,-28.786 -9.911,-2.148 -18.774,-9.435 -22.387,-20.104 -8.286,-23.58 -10.932,-48.934 -8.589,-73.781 -4.415,-5.417 -6.865,-12.372 -6.825,-19.357 -0.183,-10.353 0.981,-20.702 3.092,-30.831 5.346,-28.53 17.284,-55.621 33.936,-79.345 -0.166,-0.313 -0.33,-0.636 -0.492,-0.969 -5.405,-11.102 -6.337,-22.842 -4.972,-34.687 -5.082,-6.369 -9.934,-12.252 -13.871,-19.562 -12.619,-22.139 -18.051,-47.467 -18.846,-72.768l-0.021 -0.661 0.013 -0.661c0.315,-16.341 2.215,-32.434 8.576,-47.626 7.501,-19.101 21.426,-35.743 40.889,-43.295 21.851,-8.808 45.594,-5.409 66.874,3.366 15.058,5.904 27.759,14.879 40.753,24.289 11.482,8.317 22.338,18.059 34.314,25.58 1.606,1.009 6.496,3.739 8.573,3.572l0.719 -0.174 0.793 -0.141c2.749,-0.49 6.126,-2.224 8.561,-3.48 5.652,-2.914 11.009,-5.945 16.908,-8.359 16.813,-7.756 35.198,-11.866 53.701,-12.257 13.329,-0.878 26.295,0.857 39.408,3.171 2.555,0.43 7.488,1.475 9.511,1.284 11.099,-1.385 21.613,-3.838 32.882,-4.38 16.562,-1.418 33.016,0.835 49.079,4.856 11.514,2.881 21.678,7.908 32.165,13.271l0.241 0.123 0.237 0.128c3.745,2.013 8.652,4.72 12.835,5.582l0.726 0.15 0.544 0.144c2.081,0.022 6.816,-2.486 8.794,-3.622 13.099,-8.362 25.021,-18.903 37.583,-28.08l0.219 -0.161 0.222 -0.155c13.038,-9.115 26.095,-17.526 41.185,-22.889 16.524,-6.184 34.034,-9.208 51.439,-4.983 10.999,2.436 21.157,7.924 29.484,15.487l0.368 0.335 0.355 0.348c11.315,11.094 19.31,25.284 23.112,40.656 6.483,26.21 5.426,53.966 -1.527,79.967l-0.066 0.246 -0.071 0.245c-4.343,15.056 -10.729,29.545 -19.984,42.246 -1.842,2.66 -3.977,4.928 -5.888,7.237 1.963,12.371 0.372,25.201 -5.199,36.323 0.808,1.134 1.565,2.183 2.099,2.993 4.796,7.273 9.396,14.646 13.289,22.45 6.318,12.664 11.813,25.574 14.859,39.426zm-589.506 -260.538c15.367,-6.266 32.72,-2.842 47.554,3.311 12.831,4.99 24.152,13.114 35.183,21.213 12.072,8.632 23.208,18.556 35.74,26.543 8.398,5.16 18.573,9.262 28.529,6.847 11.386,-2.027 20.705,-9.383 31.283,-13.582 13.881,-6.5 29.143,-9.884 44.461,-10.126 11.338,-0.832 22.691,0.84 33.843,2.81 5.677,0.848 11.378,2.14 17.151,1.462 10.474,-1.349 20.817,-3.796 31.396,-4.232 13.784,-1.26 27.641,0.848 41.013,4.127 9.375,2.414 18.048,6.807 26.624,11.192 6.322,3.399 12.831,6.694 19.921,8.155 10.045,2.673 20.316,-1.542 28.892,-6.589 13.849,-8.777 26.188,-19.646 39.407,-29.304 11.03,-7.712 22.392,-15.254 35.174,-19.76 11.564,-4.352 24.379,-7.13 36.613,-4.078 6.653,1.421 12.815,4.821 17.837,9.383 7.865,7.712 13.332,17.644 16.054,28.296 5.345,21.964 4.417,45.195 -1.405,66.966 -3.529,12.234 -8.673,24.16 -16.247,34.448 -3.553,5.556 -9.384,9.73 -11.16,16.32 -0.872,2.673 0.032,5.458 0.484,8.123 1.922,9.19 0.654,19.453 -5.273,26.987 -2.204,2.689 -3.747,6.533 -2.228,9.908 2.034,5.346 5.644,9.852 8.737,14.6 4.239,6.371 8.285,12.896 11.725,19.735 5.491,11.063 10.506,22.497 12.992,34.65 1.616,4.587 2.399,9.48 3.093,14.293 1.292,7.793 2.326,15.69 2.197,23.603 -0.033,1.874 -1.026,5.209 -3.537,4.224 -2.164,-1.656 -3.917,-3.779 -6.056,-5.443 0.936,9.868 3.149,19.606 3.229,29.555 -0.032,4.651 1.05,9.302 0.154,13.937 -0.17,13.09 -2.519,26.147 -6.565,38.583 -0.808,2.6 -1.244,5.685 -3.609,7.397 -1.381,0.88 -3.287,0.105 -3.893,-1.333 -2.01,-3.964 -4.005,-7.945 -6.387,-11.701 -0.234,0 -0.703,0 -0.937,0 -2.43,11.701 -5.62,23.345 -10.78,34.166 -0.767,1.631 -1.518,3.27 -2.285,4.91l-0.154 0.024c-5.483,12.113 -13.646,22.868 -22.626,32.607 -2.14,2.334 -4.433,4.522 -6.856,6.557 -3.141,2.883 -6.46,5.62 -10.069,7.881 -1.987,1.373 -4.11,-1.001 -4.022,-2.947 0.057,-3.077 0.089,-6.153 0.121,-9.222 -1.728,0.695 -2.745,2.326 -4.029,3.577 -5.289,5.499 -11.232,10.32 -17.208,15.044 -6.145,4.546 -12.298,9.214 -19.259,12.452 -1.607,0.945 -3.924,0.073 -4.288,-1.785 -0.04,-2.091 0.234,-4.175 0.307,-6.25 -3.052,1.131 -5.103,3.893 -7.647,5.83 -3.513,3.327 -7.324,6.323 -10.715,9.771 -2.278,2.762 -5.378,4.845 -7.203,7.954 -2.011,5.499 -3.408,11.232 -6.057,16.489 -6.379,13.849 -18.395,24.161 -31.331,31.735 -7.332,4.312 -14.067,10.32 -17.079,18.484 -2.745,7.405 -5.531,14.874 -10.029,21.439 -8.156,12.662 -21.229,21.658 -35.498,26.123l-0.008 0.049c-9.302,3.036 -18.847,5.919 -28.699,6.177 -4.804,0.977 -9.714,0.904 -14.575,1.413 -2.366,0.041 -4.829,0.299 -7.122,-0.395 -8.568,0.105 -17.014,-1.349 -25.429,-2.706 -10.513,-2.438 -21.067,-5.434 -30.386,-11.038 -11.006,-6.064 -19.8,-15.827 -25.372,-27.036 -2.649,-4.853 -4.207,-10.19 -6.549,-15.181 -3.028,-5.353 -6.435,-10.756 -11.612,-14.284 -4.182,-2.827 -8.511,-5.443 -12.677,-8.285 -11.047,-7.284 -19.994,-17.774 -24.968,-30.08 -2.084,-4.368 -3.174,-9.108 -4.926,-13.59 -2.383,-3.376 -5.588,-6.065 -8.592,-8.858 -4.643,-4.385 -9.634,-8.358 -14.422,-12.573 -0.654,-0.59 -1.405,-1.018 -2.172,-1.414 0.105,2.294 0.508,4.668 0.008,6.929 -1.018,1.776 -3.327,1.801 -4.926,0.856 -7.477,-3.472 -14.148,-8.398 -20.785,-13.219 -3.271,-2.762 -6.646,-5.434 -9.739,-8.382 -1.679,-1.437 -3.262,-2.98 -4.861,-4.498 -0.92,-0.969 -1.994,-1.841 -2.6,-3.044 -0.452,-0.363 -1.357,-1.098 -1.801,-1.47l-0.743 0.453c-0.282,3.326 0.186,6.686 -0.177,10.012 -0.461,1.22 -1.93,1.414 -2.916,2.035 -13.162,-8.511 -23.95,-20.357 -32.421,-33.463 -10.933,-16.085 -17.725,-34.754 -20.971,-53.868 -4.102,3.367 -5.418,8.971 -8.277,13.227 -2.043,2.067 -4.675,-0.121 -5.37,-2.294 -8.446,-23.918 -10.013,-50.033 -5.693,-74.968 0.63,-3.957 1.47,-7.882 1.866,-11.871 -2.374,1.648 -4.159,3.981 -6.468,5.709 -2.213,1.131 -3.82,-1.655 -3.707,-3.569 -0.193,-8.64 0.816,-17.305 2.592,-25.751 4.757,-25.614 15.69,-49.92 30.847,-71.044 2.98,-4.716 7.187,-9.513 6.646,-15.472 -1.179,-3.909 -4.458,-6.646 -6.186,-10.28 -3.973,-8.075 -3.246,-17.498 -1.615,-26.082 0.493,-4.498 -2.035,-8.544 -5.006,-11.677 -4.522,-5.717 -9.416,-11.224 -12.848,-17.7 -10.594,-18.444 -14.938,-39.883 -15.601,-60.959 0.251,-12.976 1.559,-26.268 6.67,-38.324 4.789,-12.355 13.607,-23.983 26.309,-28.844zm205.453 504.529c3.771,-1.163 7.72,0.638 10.797,2.778 1.486,1.179 3.48,2.527 3.214,4.716 0.516,2.624 -2.52,4.037 -4.716,3.747 -4.538,-0.251 -9.811,-2.334 -11.507,-6.905 -0.678,-1.808 0.646,-3.577 2.212,-4.336zm150.035 -3.335c3.359,-1.478 7.534,2.487 5.152,5.733 -3.295,4.684 -9.149,8.277 -15.044,7.333 -1.236,-0.227 -2.18,-1.18 -2.786,-2.205 -0.315,-2.019 0.84,-3.932 2.301,-5.216 2.972,-2.657 6.662,-4.321 10.377,-5.645zm16.077 2.245c1.882,-1.785 4.086,-3.182 6.396,-4.344 2.559,-1.155 5.2,-2.156 7.582,-3.683 4.248,-2.487 9.367,-4.538 11.572,-9.286 1.316,-3.198 2.358,-6.872 1.55,-10.296 -0.533,-2.035 -2.81,-0.662 -4.126,-0.331 -5.564,2.455 -11.661,5.693 -17.887,3.973 -2.737,-0.606 -5.539,0.032 -8.155,0.832 -4.272,1.284 -7.591,4.797 -12.129,5.329 -2.301,0.566 -5.604,0.719 -6.654,-1.929 -0.299,-2.714 1.454,-5.136 3.586,-6.614 4.166,-3.295 9.197,-7.082 14.842,-5.483 5.127,0.04 11.038,0.363 15.132,-3.319 5.031,-4.086 11.345,-6.896 14.826,-12.613 2.77,-4.554 2.325,-10.094 1.938,-15.181 -0.549,-1.833 -1.171,-3.642 -1.817,-5.426 -0.355,-0.921 -0.711,-1.825 -1.05,-2.73 -1.93,-4.562 -4.433,-8.866 -7.477,-12.774 -6.016,-7.68 -11.814,-15.69 -15.601,-24.734 -1.397,-3.287 -3.053,-6.751 -2.496,-10.417 0.211,-2.092 2.552,-4.191 4.644,-3.069 4.942,2.189 8.406,6.541 12.007,10.409 8.398,9.206 15.779,19.655 19.897,31.501 0.695,1.817 1.397,3.642 2.051,5.491 1.938,6.113 3.36,12.411 3.957,18.807 0.832,6.12 1.462,12.371 0.565,18.524 -0.387,4.183 -0.137,8.446 0.897,12.532 0.444,-0.177 1.324,-0.525 1.768,-0.694 10.288,-6.783 18.153,-16.659 24.403,-27.165 4.595,-7.518 7.582,-15.867 11.927,-23.514 1.155,-1.962 3.157,-4.078 5.668,-3.578 2.988,1.608 2.423,5.58 2.673,8.439 0.339,6.258 -2.317,12.379 -1.76,18.564 2.923,-1.049 5.087,-3.447 7.413,-5.41 7.074,-6.856 12.823,-15.108 16.634,-24.217 2.657,-6.533 3.925,-13.485 5.443,-20.341 0.614,-2.059 1.308,-4.667 3.561,-5.459 2.439,-0.428 3.747,2.124 4.579,3.981 2.172,5.629 2.987,11.669 3.658,17.628 0.072,1.324 0.597,2.552 1.162,3.747 12.202,-15.997 17.975,-36.007 20.665,-55.694 -1.68,-2.632 -1.091,-5.83 -0.889,-8.753 0.404,-3.924 0.485,-7.913 1.656,-11.709 -0.259,-4.376 -1.123,-9.004 0.298,-13.243 0.638,-2.107 3.537,-1.898 4.829,-0.565 5.709,5.563 8.277,13.364 12.727,19.824 0.242,0 0.718,0.008 0.96,0.008 0.865,-2.826 0.768,-5.822 1.293,-8.705 0.831,-8.487 -0.146,-16.957 -1.002,-25.404 -1.235,-10.368 -4.053,-20.43 -7.009,-30.41 -1.76,-6.097 -5.055,-11.742 -5.935,-18.08 -0.42,-1.761 1.155,-4.191 3.141,-3.432 4.232,1.51 7.332,4.95 11.022,7.372 -2.697,-14.172 -8.85,-27.455 -15.818,-39.996 -6.646,-12.031 -15.004,-23.038 -21.125,-35.368 -1.825,-3.909 -3.48,-7.962 -4.167,-12.242 -0.177,-1.825 -0.613,-4.409 1.454,-5.338 3.02,-0.961 5.394,1.736 7.978,2.802 2.035,-1.397 3.521,-3.431 5.031,-5.345 0.452,-1.099 0.945,-2.165 1.478,-3.214 2.083,-6.452 0.04,-13.251 -3.214,-18.912 -2.269,-3.464 -1.106,-7.768 0.719,-11.127 1.534,-2.407 3.9,-4.102 5.926,-6.065 9.182,-8.81 16.466,-19.582 21.262,-31.363 5.733,-15.068 8.051,-31.404 6.993,-47.474 -0.929,-11.288 -3.351,-23.272 -11.127,-31.969 -5.661,-7.073 -15.173,-10.085 -23.991,-9.48 -11.709,0.913 -22.554,6.17 -32.212,12.573 -7.671,5.362 -15.019,11.192 -22.077,17.337 -0.105,0.089 -0.315,0.259 -0.42,0.339 -11.523,10.224 -23.086,20.665 -36.507,28.376 -4.805,2.843 -10.086,4.732 -15.036,7.276 -0.121,1.542 0.226,3.553 -1.429,4.417 -2.899,1.744 -6.323,0.299 -9.222,-0.654 -15.851,-6.452 -29.062,-17.79 -44.566,-24.904 -13.251,-6.347 -28.182,-9.197 -42.838,-8.301 -5.047,0.477 -10.07,1.47 -14.891,3.044 -6.435,2.536 -11.789,8.148 -13.299,15.004 -1.97,6.896 -0.347,14.172 1.849,20.809 4.829,12.274 14.64,21.496 21.722,32.389 0.662,1.018 1.332,2.027 1.994,3.061 6.307,10.021 10.991,21.31 12.129,33.172 0.622,3.876 1.018,7.776 1.147,11.701 0.186,2.535 0.145,5.087 0.016,7.631 -0.024,1.469 -0.097,2.939 -0.234,4.409 -0.226,2.018 -0.347,4.07 -0.759,6.072 -0.985,4.773 -2.108,9.553 -3.925,14.083 -1.897,5.055 -4.813,9.625 -7.049,14.527 -2.374,5.515 0.315,11.555 3.779,15.94 1.421,1.954 3.795,2.681 5.717,4.005 2.455,2.657 2.091,6.791 1.098,10.013 -2.382,6.743 -5.127,13.542 -5.37,20.794 0.202,8.172 4.555,15.35 8.705,22.109 4.45,7.825 2.35,17.135 -0.436,25.138 -1.534,4.966 -2.398,10.094 -2.85,15.262 -0.218,5.903 0.541,11.757 1.114,17.619 3.303,14.261 11.063,26.971 15.278,40.933 2.899,10.086 3.803,20.93 1.211,31.178 -0.605,1.679 -1.986,4.029 -4.094,3.464 -2.576,-1.034 -3.198,-4.03 -3.803,-6.42 -0.921,-4.449 -2.689,-8.656 -3.747,-13.065 -4.215,-14.511 -10.61,-28.4 -13.501,-43.283 -0.517,-5.079 -2.181,-9.924 -4.135,-14.607 -2.309,-5.968 -4.207,-12.145 -5.273,-18.452 -1.147,-6.856 1.098,-13.566 1.534,-20.357 0.243,-7.009 -4.102,-12.839 -6.371,-19.146 -1.445,-5.265 -1.033,-10.869 0.146,-16.134 1.001,-5.677 3.431,-10.926 6.096,-15.98 1.769,-4.038 -2.156,-7.316 -4.191,-10.336 -2.269,-2.988 -4.473,-6.041 -7.308,-8.528 -3.02,2.31 -5.967,4.716 -8.85,7.195 -3.359,2.875 -6.379,6.121 -9.149,9.569 -2.099,2.633 -5.846,4.183 -9.068,2.77 -5.463,-2.762 -29.29,-27.272 -34.004,-32.115 -3.771,-3.932 -4.789,-9.52 -7.607,-14.05 -8.067,-15.601 -10.182,-33.883 -6.928,-51.067 2.14,-15.48 8.914,-30.152 18.71,-42.265 7.679,-10.239 16.965,-20.163 19.541,-33.14 2.552,-9.068 0.533,-20.163 -7.074,-26.276 -4.449,-3.965 -10.489,-5.208 -16.166,-6.29 -8.39,-1.284 -16.877,-0.234 -25.242,0.621 -3.505,0.784 -6.993,1.656 -10.458,2.568 -11.103,3.465 -21.35,9.141 -31.137,15.343 -9.577,5.418 -18.597,12.209 -29.337,15.213 -2.156,0.614 -4.788,0.913 -6.613,-0.662 -1.203,-1.114 -0.695,-2.915 -0.905,-4.352 -5.846,-2.479 -11.805,-4.773 -17.224,-8.132 -6.532,-4.11 -13,-8.39 -18.798,-13.509 -7.825,-6.162 -14.85,-13.244 -22.691,-19.381 -13.55,-11.248 -28.691,-22.456 -46.763,-24.33 -10.812,-1.356 -22.335,3.214 -28.375,12.468 -1.276,1.987 -2.367,4.078 -3.4,6.194 -5.144,11.596 -6.428,24.637 -5.515,37.185 1.534,22.134 9.036,44.809 25.049,60.725 3.73,4.207 9.496,7.001 10.893,12.887 2.123,6.905 -4.232,12.436 -4.119,19.219 -0.823,6.25 2.52,12.08 7.09,16.069 2.229,-1.259 4.409,-3.262 7.155,-2.979 2.148,0.242 2.866,2.883 2.713,4.716 -1.017,7.122 -4.417,13.59 -7.809,19.832 -3.157,6.307 -7.388,11.975 -11.208,17.878 -8.705,13.485 -16.4,27.802 -21.027,43.234 -0.751,2.358 -1.163,4.805 -1.211,7.284 3.585,-2.318 6.726,-5.395 10.699,-7.074 1.244,-0.598 3.246,-0.145 3.504,1.389 0.776,4.183 -1.558,8.043 -3.036,11.797 -4.271,10.482 -7.655,21.367 -9.553,32.543 -1.752,11.822 -3.617,23.789 -2.422,35.772 0.226,1.745 0.493,3.505 1.123,5.168 1.138,-0.024 1.413,-1.308 1.946,-2.083 3.117,-5.984 6.476,-11.854 10.449,-17.313 1.235,-1.55 1.679,-3.513 2.22,-5.362 1.284,-4.603 3.618,-8.818 6.089,-12.871 0.218,-1.769 -0.049,-3.86 1.413,-5.177 0.678,-0.969 1.809,-0.177 1.873,0.824 -0.92,5.725 -1.429,11.548 -3.173,17.111 -1.373,3.884 -0.614,8.027 -1.139,12.032 -0.25,3.795 -1.074,7.542 -1.049,11.362 0.694,12.92 1.736,25.985 5.79,38.364 2.212,6.63 4.005,13.494 7.647,19.534 2.575,4.336 4.586,9.165 8.365,12.637 1.187,-7.219 1.898,-14.567 4.248,-21.536 0.759,-1.704 2.059,-3.739 4.158,-3.714 2.423,0.008 3.586,2.559 4.216,4.538 2.147,8.043 3.205,16.481 6.904,24.039 0.153,0.283 0.444,0.848 0.589,1.131 1.486,2.697 3.052,5.353 4.74,7.937 4.886,7.082 10.926,13.55 18.153,18.29 -0.218,-8.131 -3.117,-16.271 -1.139,-24.394 0.202,-1.438 1.268,-3.061 2.899,-2.915 2.382,0.104 3.949,2.269 5.112,4.126 5.337,9.278 9.068,19.412 15.108,28.303 5.289,7.728 11.572,14.85 19.073,20.511 1.204,0.783 2.455,1.518 3.707,2.252 0.323,-1.154 0.824,-2.277 0.888,-3.472 -1.566,-3.755 -1.146,-7.865 -1.146,-11.814 -0.057,-2.115 0.533,-4.142 1.259,-6.088 0.808,-7.34 1.874,-14.673 3.561,-21.851 0.267,-1.074 0.558,-2.124 0.897,-3.149 0.226,-0.703 0.452,-1.405 0.67,-2.092 1.171,-5.241 3.327,-10.166 5.717,-14.947 3.432,-7.768 8.64,-14.559 13.905,-21.148 3.715,-4.401 7.47,-8.891 12.234,-12.194 1.72,-1.187 4.926,-1.211 5.661,1.155 1.187,4.425 -0.743,8.858 -2.383,12.904 -3.771,9.157 -10.255,16.756 -15.73,24.895 -4.457,5.79 -7.284,12.678 -8.826,19.792 -0.993,5.136 -0.88,10.813 1.874,15.424 3.73,4.933 8.89,8.47 14.22,11.482 3.407,3.004 8.083,3.23 12.355,3.965 2.374,0.469 4.691,-0.597 7.065,-0.452 2.77,0.42 5.297,1.752 7.51,3.44 2.544,1.873 5.54,3.698 6.63,6.84 0.783,2.309 -1.438,4.304 -3.602,4.441 -3.884,0.161 -7.574,-1.518 -10.788,-3.561 -3.06,-1.987 -6.702,-2.794 -10.271,-3.182 -3.44,-0.282 -6.921,0.977 -10.312,0.057 -3.529,-0.969 -6.88,-2.447 -10.151,-4.054 -1.033,-0.436 -2.463,-1.429 -3.205,-0.024 -1.664,6.436 1.558,13.606 7.251,16.99 5.007,4.045 11.571,5.248 16.643,9.165 1.397,1.106 3.375,2.196 3.504,4.199 0.493,2.091 -1.534,3.698 -3.4,4.021 -5.353,1.066 -10.295,-2.18 -15.584,-2.309 -0.307,0.169 -0.913,0.509 -1.22,0.678 0.057,2.439 1.502,4.538 2.689,6.581 4.321,7.292 11.75,12.92 20.228,14.188 2.213,-2.035 5.023,-4.005 8.205,-3.327 4.772,1.438 8.357,6.056 13.655,5.895 5.014,0.347 10.126,-2.124 15.011,-0.267 1.494,0.679 3.416,2.722 1.995,4.337 -3.739,4.07 -9.489,4.909 -14.568,6.282 -3.553,1.026 -7.308,0.21 -10.909,0.945 -0.097,0.371 -0.283,1.114 -0.372,1.486 2.391,2.592 5.177,4.99 8.616,6.032 3.545,1.437 7.421,1.219 11.168,1.195 11.346,-0.735 22.409,-3.957 32.858,-8.334 7.219,-3.213 14.559,-6.629 20.551,-11.862 6.314,-5.41 7.485,-17.159 0.218,-22.271 -3.65,-2.818 -6.929,-6.226 -8.891,-10.457 -3.06,-6.928 -9.932,-11.458 -17.055,-13.405 -5.046,-1.243 -10.303,-1.744 -15.173,-3.674 -4.19,-1.97 -8.002,-4.74 -11.079,-8.204 -4.32,-4.53 -6.427,-10.683 -7.477,-16.739 -0.727,-4.523 -0.622,-9.303 1.074,-13.599 0.84,-2.398 4.554,-2.85 5.806,-0.549 1.898,3.69 2.067,8.099 4.369,11.628 1.712,2.665 4.037,5.362 7.283,6.032 4.038,0.065 8.011,-1.163 12.073,-0.864 5.369,-0.008 10.497,1.72 15.496,3.513 5.491,2.083 10.408,5.394 15.891,7.502 2.584,1.114 5.306,1.889 8.099,2.228 3.013,0.081 6.057,-0.347 8.851,-1.518 7.098,-2.996 13.533,-7.494 20.995,-9.617 5.265,-1.478 10.756,-2.819 16.255,-1.995 3.609,0.299 7.897,1.987 11.006,-0.759 4.869,-3.731 5.758,-10.126 7.873,-15.463 1.276,-3.19 5.944,-2.512 6.767,0.629 3.012,12.662 -1.574,27.286 -12.492,34.82 -5.143,3.884 -11.725,4.845 -17.902,5.951 -4.781,0.686 -9.133,2.932 -13.17,5.499 -2.883,2.213 -5.039,5.233 -6.792,8.39 -1.55,2.98 -3.343,5.911 -5.903,8.14 -2.527,2.398 -6.056,4.183 -7.025,7.8 -1.534,5.007 -1.025,11.12 2.746,15.036 4.732,5.378 11.426,8.342 17.708,11.499 11.217,5.451 23.321,9.133 35.732,10.522 5.572,0.476 11.443,0.032 16.546,-2.406 2.229,-1.551 5.37,-3.319 5.241,-6.428 -8.366,0.565 -16.82,-1.155 -24.185,-5.185 -0.88,-0.621 -1.566,-1.501 -1.994,-2.47 -0.243,-2.504 2.309,-3.917 4.433,-4.232 4.627,-0.541 9.165,1.171 13.784,1.09 5.596,-0.161 9.141,-5.474 14.519,-6.355 2.907,-0.42 5.103,1.866 7.243,3.448 8.6,-1.631 16.029,-7.316 20.43,-14.793 0.993,-1.93 2.713,-4.07 1.914,-6.339 -6.024,-0.259 -11.976,4.167 -17.967,1.785 -2.463,-0.978 -2.794,-4.143 -0.913,-5.871zm-208.223 -64.382c3.327,-1.115 6.597,1.017 8.915,3.238 2.027,2.027 4.579,4.417 4.086,7.59 0.105,2.705 -2.818,4.522 -5.306,3.949 -4.425,-1.211 -9.044,-3.997 -10.352,-8.673 -0.815,-2.333 0.275,-5.216 2.657,-6.104zm98.564 113.179c-7.187,2.471 -14.236,5.322 -21.423,7.793 -9.157,2.673 -18.363,5.281 -27.802,6.735 -3.868,0.589 -7.664,4.11 -6.21,8.317 2.374,6.395 7.001,11.87 12.718,15.569 9.698,6.476 21.237,9.415 32.648,11.062 20.187,2.358 41.392,1.252 60.264,-6.855 7.929,-3.634 15.512,-9.166 19.226,-17.305 1.381,-2.633 1.874,-6.533 -0.726,-8.576 -3.667,-2.6 -8.382,-2.632 -12.622,-3.545 -11.45,-2.705 -22.828,-5.814 -33.753,-10.199 -7.026,-2.761 -14.802,-5.539 -22.32,-2.996zm-63.373 -135.588c-0.702,-6.072 -0.727,-12.347 0.84,-18.298 2.689,-16.764 12.864,-31.097 16.957,-47.465 0.332,-1.889 0.291,-3.884 1.115,-5.644 0.242,-7.946 0.686,-16.053 -1.381,-23.822 -1.518,-6.387 -4.28,-12.629 -3.682,-19.331 -0.186,-6.493 4.159,-11.637 7.114,-17.015 3.763,-6.645 5.547,-14.518 4.11,-22.093l-0.137 -0.355c-2.132,-7.93 -4.781,-15.989 -4.102,-24.306 0.097,-3.141 1.841,-5.83 3.537,-8.342 1.195,0.679 2.584,1.196 3.399,2.366 1.744,2.269 1.341,5.346 2.512,7.874 1.816,4.304 2.802,8.923 4.699,13.194 4.724,5.903 8.616,12.783 9.593,20.39 0.453,6.234 -1.146,12.508 -3.819,18.112 -2.673,5.225 -5.709,10.587 -5.83,16.618 -0.477,5.726 2.236,11.184 1.623,16.91 -0.622,7.76 -3.715,14.979 -5.895,22.376 -1.332,4.223 -2.955,8.349 -4.118,12.621 -1.131,5.168 -2.479,10.304 -4.353,15.254 -4.021,10.206 -7.057,20.785 -10.748,31.105 -0.436,3.682 -2.123,7.178 -2.826,10.844 -0.686,2.48 -0.589,5.572 -2.947,7.187 -1.502,1.462 -3.618,-0.024 -4.425,-1.486 -1.066,-2.042 -1.131,-4.449 -1.236,-6.694zm-128.595 -58.051c1.502,2.487 3.19,4.853 4.909,7.203 1.914,1.889 3.675,4.102 6.194,5.224 2.891,1.373 6.153,1.462 9.294,1.688 8.172,1.462 15.957,6 20.414,13.138 1.906,2.964 2.681,6.46 3.214,9.9 0.743,6.008 -1.591,11.822 -1.494,17.814 -0.024,3.698 -0.097,7.445 0.662,11.087 0.549,3.02 1.139,6.153 0.509,9.213 -0.468,1.43 -1.397,3.117 -3.068,3.287 -2.722,-0.371 -4.434,-2.851 -5.693,-5.047 -3.037,-5.709 -5.911,-11.669 -6.751,-18.153 -0.872,-5.208 -1.696,-10.917 -5.37,-14.987 -2.713,-3.069 -6.573,-4.99 -10.611,-5.54 -1.962,2.52 -3.52,6.525 -7.211,6.638 -5.402,-1.381 -8.462,-6.379 -11.402,-10.675 -3.746,-5.249 -6.209,-11.248 -8.406,-17.273 -0.355,-1.009 -0.864,-1.978 -0.928,-3.044 -1.43,-3.189 -2.407,-6.541 -3.44,-9.868 -3.125,2.318 -2.948,7.066 -5.863,9.578 -2.172,1.728 -4.611,-0.913 -5.265,-2.948 -3.747,-9.448 -5.006,-19.751 -5.079,-29.853 1.486,-8.754 0.929,-17.959 4.514,-26.26 3.327,-7.656 8.979,-14.132 15.69,-19.041 3.504,-3.126 7.615,-5.653 12.185,-6.872 2.713,-0.509 4.756,2.6 3.505,4.982 -2.584,5.443 -5.419,10.805 -7.195,16.586 -1.486,5.144 -2.14,10.49 -2.665,15.811 -0.04,2.964 -0.032,5.927 0.234,8.891 0.929,4.07 1.429,8.252 2.697,12.241 0.937,2.698 1.72,5.443 2.827,8.084 1.17,2.745 2.252,5.523 3.593,8.196zm79.16 -2.495c0.274,0.46 0.815,1.388 1.082,1.849 1.437,3.577 0.848,7.631 -1.179,10.853 -3.295,5.434 -8.164,9.617 -12.355,14.317 -1.518,1.631 -4.183,3.642 -6.226,1.639 -2.229,-2.568 -1.179,-6.21 -1.728,-9.27 -0.121,-4.215 -3.077,-7.437 -5.612,-10.498 -1.05,-0.831 -2.067,-1.671 -3.061,-2.551 -4.667,-3.126 -9.94,-5.33 -15.423,-6.525 -8.648,-2.584 -16.255,-9.432 -18.686,-18.266 -3.302,-10.336 -0.831,-21.657 4.264,-30.952 1.009,-2.236 4.473,-2.729 5.701,-0.411 2.261,3.956 2.519,8.688 4.094,12.912 1.881,4.715 4.409,9.286 8.196,12.742 4.433,4.005 9.109,7.728 13.445,11.846l0.138 0.024c1.09,0.638 2.164,1.317 3.238,2.011 4.336,2.439 8.939,4.49 13.856,5.459 3.739,0.727 7.583,1.946 10.256,4.821zm260 -7.89c3.618,-2.624 8.406,-3.747 11.354,-7.388 3.222,-2.746 6.548,-5.37 9.77,-8.108 6.662,-6.363 10.353,-15.116 12.105,-24.031 0.767,-1.995 2.334,-4.393 4.813,-3.916 2.874,0.815 3.852,4.029 4.885,6.5 1.236,5.257 3.117,10.401 3.198,15.867 -0.081,9.626 -4.054,20.019 -12.823,24.912 -7.438,3.9 -16.013,5.426 -22.966,10.304 -3.513,2.608 -6.904,5.749 -8.47,9.94 -1.543,3.529 0.209,7.558 -1.276,11.095 -0.541,1.478 -2.205,2.374 -3.731,2.172 -2.56,-1.074 -4.239,-3.383 -6.145,-5.281 -3.666,-3.641 -7.139,-7.517 -10.078,-11.781 -3.206,-4.466 -2.027,-11.685 2.891,-14.446 5.095,-2.964 11.265,-3.061 16.473,-5.839zm-231.059 -36.345c-1.567,-5.161 -4.716,-9.795 -8.948,-13.123 -1.17,3.222 -2.592,6.727 -5.773,8.463 -5.629,3.4 -13.599,0.638 -16.279,-5.257 -2.108,-4.296 -1.583,-9.124 -0.105,-13.509 -3.392,-1.187 -7.01,-1.623 -10.563,-0.977 -1.421,0.387 -3.625,-0.008 -4.118,1.809 -0.985,2.293 -0.961,4.836 -0.468,7.251 2.363,24.87 37.278,31.33 46.254,15.343zm195.157 -34.554c11.701,-6.217 25.469,-7.921 38.502,-6.129 8.132,0.703 16.037,2.996 24.201,3.44 4.498,0.501 9.165,-0.541 13.494,1.188 2.325,0.702 4.675,3.431 3.262,5.894 -2.059,3.19 -5.822,4.692 -9.391,5.451 -5.16,1.744 -11.217,1.316 -15.561,5.055 -2.859,2.334 -3.828,6.016 -4.433,9.488 -3.117,9.601 -8.293,18.928 -16.481,25.089 -8.245,6.347 -18.646,9.278 -28.941,9.618 -3.586,-0.186 -7.219,-0.243 -10.667,0.912 -4.305,2.011 -7.793,5.604 -9.319,10.134 -3.246,8.592 -0.872,17.814 0.363,26.551 0.485,3.367 -2.777,8.01 -6.428,5.83 -6.686,-6.323 -9.948,-15.488 -11.619,-24.346 -3.796,-17.507 0.193,-35.837 7.752,-51.81 5.353,-11.135 14.171,-20.785 25.266,-26.365zm18.646 41.183c10.667,-5.507 18.306,-18.387 14.551,-30.362 -4.764,-0.783 -9.658,-1.179 -14.358,0.194 0.574,2.39 1.51,4.756 1.519,7.243 -0.557,4.094 -2.076,8.535 -5.742,10.861 -4.013,2.842 -9.988,2.713 -13.663,-0.662 -2.228,-1.873 -3.092,-4.732 -4.158,-7.316 -3.828,3.65 -8.245,7.825 -8.673,13.405 2.229,4.449 6.896,6.871 11.442,8.333 6.331,1.679 13.066,0.678 19.082,-1.696zm-260.13 -47.667c14.285,-1.631 29.216,1.954 40.892,10.433 4.385,3.359 8.544,7.098 11.895,11.507 4.651,5.725 7.663,12.541 10.4,19.34 3.699,9.916 5.588,20.543 5.499,31.121 -0.799,11.337 -2.794,23.191 -9.698,32.559 -1.647,2.277 -3.771,4.869 -6.751,5.119 -2.592,-1.195 -3.746,-4.223 -3.762,-6.912 0.476,-8.164 4.061,-16.4 1.558,-24.556 -1.518,-5.734 -5.693,-10.942 -11.45,-12.799 -4.102,-0.969 -8.342,0.315 -12.476,-0.477 -9.698,-1.13 -19.655,-4.005 -27.084,-10.634 -8.269,-6.59 -13.106,-16.587 -15.318,-26.753 -0.655,-3.319 -2.932,-6.178 -5.839,-7.817 -3.359,-2.067 -7.445,-1.978 -11.119,-3.141 -3.65,-1.09 -7.889,-2.075 -10.199,-5.37 -1.696,-2.382 0.194,-5.531 2.649,-6.403 3.852,-1.882 8.204,-0.856 12.306,-1.066 9.585,-0.776 18.944,-3.125 28.497,-4.151zm326.902 -14.68c-4.974,-1.825 -10.368,-2.148 -15.302,-4.054 -2.721,-1.042 -4.635,-3.618 -5.079,-6.46 0.169,-2.479 1.163,-4.797 1.469,-7.243 1.204,-16.239 -0.04,-32.688 -4.287,-48.443 -1.268,-6.217 -3.424,-12.209 -5.475,-18.168 -1.098,-1.664 -1.534,-3.707 -2.213,-5.564 -3.238,-6.129 -6.08,-12.484 -9.763,-18.371 -4.602,-7.792 -9.988,-15.084 -15.116,-22.529 -3.819,-5.564 -8.802,-10.159 -13.162,-15.27 -1.591,-1.946 -3.343,-4.159 -3.271,-6.808 0.792,-2.277 3.626,-2.414 5.556,-1.647 9.432,4.013 17.329,10.732 26.397,15.448 3.868,2.438 8.213,4.869 10.264,9.181 2.188,4.256 4.32,8.552 6.5,12.823 3.48,7.72 7.93,14.987 10.974,22.909 8.826,21.1 15.464,43.339 17.192,66.232 0.121,2.745 1.736,5.564 4.498,6.371 5.894,2.245 11.385,5.523 17.466,7.284 2.527,0.775 4.296,-2.043 4.36,-4.248 0.469,-3.609 -1.138,-7.994 1.753,-10.901 3.084,-1.559 5.806,1.356 7.55,3.569 3.343,5.184 5.596,10.99 7.55,16.82 4.797,12.832 9.658,25.946 10.797,39.705 1.383,7.538 -47.585,-27.468 -58.658,-30.636zm-435.277 23.514c0.25,-2.568 1.187,-5.031 1.978,-7.469 0.654,-3.876 1.833,-7.793 3.941,-11.152 3.335,-5.216 6.678,-10.417 10.045,-15.609 8.689,-15.246 18.71,-29.668 28.384,-44.276 7.09,-9.439 13.606,-19.315 20.196,-29.102 2.333,-3.149 4.183,-6.613 6.129,-9.997 0.516,-1.017 1.526,-2.649 0.129,-3.424 -8.471,2.318 -16.328,6.476 -23.571,11.394 -4.127,2.851 -7.074,7.211 -11.628,9.448 -1.373,0.622 -3.481,0.977 -4.458,-0.452 -1.308,-1.405 -0.468,-3.359 0.025,-4.91 2.462,-6.847 4.772,-13.752 7.679,-20.422 0.815,-1.364 2.318,-2.067 3.601,-2.899 2.358,-1.364 4.442,-3.149 6.775,-4.546 8.197,-4.304 16.756,-7.881 24.839,-12.387 2.923,-1.534 5.507,-3.577 8.253,-5.37 3.44,-1.534 6.888,-3.052 10.182,-4.877 5.701,-3.052 10.183,-7.793 15.295,-11.66 5.684,-5.152 12.096,-9.61 19.226,-12.517 5.362,-2.019 10.877,-3.601 16.078,-6.04 2.027,-1.098 3.957,-2.358 5.999,-3.44 2.068,-1.195 4.2,-2.277 6.283,-3.456 5.192,-2.358 9.892,-5.645 15.068,-8.027 10.699,-5.539 22.675,-8.236 34.634,-9.084 2.931,-0.202 5.895,-0.024 8.794,0.517 2.996,0.508 5.184,3.916 3.997,6.815 -1.728,4.062 -4.926,7.251 -8.293,9.997 -3.658,3.214 -7.89,5.871 -12.597,7.219 -4.442,1.373 -9.149,1.074 -13.728,1.51 -8.051,0.589 -15.835,2.778 -23.676,4.506l-0.049 0.218c-2.624,0.92 -5.272,1.833 -7.671,3.262 -3.157,2.019 -6.323,4.167 -9.827,5.524 -5.144,0.904 -10.99,0.541 -15.068,4.409 -7.591,4.61 -13.857,11.014 -19.405,17.886 -1.792,2.116 -3.359,4.401 -5.038,6.605 -2.003,3.561 -4.361,6.977 -5.596,10.918 -0.364,1.163 -0.735,2.317 -1.091,3.488 -1.485,3.9 -0.33,8.431 -2.656,12.04 -2.649,4.748 -6.21,8.891 -9.367,13.292 -6.485,8.68 -12.42,17.757 -18.613,26.647 -7.122,10.998 -14.802,21.69 -20.971,33.277 0.202,0.525 0.606,1.567 0.807,2.092 5.604,-1.873 11.249,-3.65 16.756,-5.806 3.472,-1.341 7.324,-1.841 10.433,-4.005 2.172,-1.623 3.4,-4.159 5.394,-5.968 2.915,-2.721 5.54,-5.749 8.6,-8.309 1.429,-1.009 3.149,-2.164 4.983,-1.712 1.727,0.67 2.188,2.608 2.317,4.264 0.032,7.09 -3.359,13.824 -2.528,20.954 0.146,3.053 1.745,6.501 -0.242,9.287 -2.043,3.004 -5.903,3.811 -9.294,4.078 -16.671,0.636 -51.819,14.891 -63.809,25.315 -4.482,3.593 -8.245,7.978 -12.581,11.741 -2.592,1.995 -3.028,5.499 -4.773,8.108 -0.678,0.759 -1.106,2.664 -2.406,1.784 -1.041,-2.382 -1.655,-5.103 -0.856,-7.655 1.333,-3.933 1.389,-8.164 2.972,-12.024zm314.636 -7.816c-0.5,-2.375 -0.371,-4.886 0.299,-7.211 0.218,-1.188 0.436,-2.415 0.993,-3.497 1.001,-3.924 2.132,-7.825 3.432,-11.66 0.428,-4.296 1.478,-8.519 1.591,-12.856 0.581,-15.334 4.053,-30.556 2.681,-45.955 -0.21,-12.032 -2.189,-23.959 -4.91,-35.659 -0.727,-4.991 -2.964,-9.553 -4.038,-14.455 -0.985,-4.788 -4.045,-8.842 -4.942,-13.638 -0.112,-2.132 0.873,-4.628 3.053,-5.346 2.132,-0.921 4.433,-0.162 6.605,0.194 12.226,2.753 24.379,5.838 36.669,8.325 4.207,1.114 8.414,3.739 10.086,7.938 2.277,4.167 4.756,8.357 5.814,13.041 0.379,1.728 -1.058,3.763 -2.867,3.795 -2.697,0.622 -5.039,-1.106 -7.404,-2.043 -5.257,-2.519 -11.176,-2.721 -16.805,-3.86 -1.712,-0.113 -3.803,-1.251 -5.216,0.21 -1.47,1.204 -0.767,3.239 -0.461,4.813 1.074,4.191 2.092,8.406 3.061,12.629 0.727,3.174 4.28,4.28 7.106,4.765 4.95,0.638 9.835,1.768 14.826,2.18 3.327,0.339 5.935,3.028 6.726,6.194 0.905,3.86 2.019,7.752 2.035,11.749 0.105,3.149 -3.722,4.796 -6.395,4.207 -5.814,-1.357 -11.757,-2.108 -17.725,-2.309 -1.437,-0.162 -2.713,0.807 -3.505,1.905 -1.485,3.682 -0.193,7.688 -0.46,11.515 0.17,3.892 -0.266,7.833 0.323,11.685 1.518,3.335 5.451,2.455 8.398,2.438 4.111,-0.266 8.132,0.873 12.234,0.84 3.908,-0.097 7.881,1.163 11.733,-0.04 4.167,-1.001 6.654,-5.039 10.716,-6.258 3.084,-0.654 5.854,2.067 6.355,4.966 0.961,5.644 0.169,11.361 0.339,17.046 0.282,4.813 -4.256,9.246 -9.028,9.028 -18.708,-0.99 -46.545,-4.278 -59.295,13.138 -0.057,0.356 -0.218,0.638 -0.477,0.84 -1.195,2.229 -2.172,4.676 -3.932,6.541 -1.106,2.188 -2.301,4.433 -4.167,6.08 -1.252,0.969 -2.794,-0.177 -3.448,-1.275zm-139.626 -19.615l0.315 0.404c1.236,5.984 4.635,11.644 3.723,17.951 0.145,2.253 -2.81,4.118 -4.579,2.39 -17.815,-16.803 -8.392,-25.614 -46.851,-27.269 -4.191,0.177 -8.535,0.799 -12.581,-0.646 -3.335,-1.648 -5.103,-5.54 -4.732,-9.149 0.84,-14.019 2.39,-27.989 4.554,-41.861 1.325,-13.494 5.863,-26.374 8.382,-39.641 1.187,-6.282 3.408,-12.718 8.447,-16.966 3.569,-2.285 7.849,-2.963 11.717,-4.562 6.137,-2.649 12.637,-4.28 18.863,-6.686 5.015,-1.906 10.126,-3.626 15.431,-4.522 2.124,-0.315 4.975,0.404 5.443,2.834 1.494,3.658 -1.389,6.953 -2.382,10.328 -1.736,3.828 -2.108,8.552 -5.532,11.394 -1.695,1.655 -4.053,2.471 -6.411,2.221 -6.363,-0.501 -12.379,2.051 -18.306,3.973 -3.045,1.017 -6.703,2.366 -7.543,5.87 -1.364,5.249 -2.664,10.522 -3.787,15.835 1.397,2.496 4.288,1.502 6.493,0.961 4.215,-1.154 8.495,-2.027 12.669,-3.343 2.011,-0.638 4.724,-0.549 5.871,1.543 1.688,2.567 0.194,5.612 0.097,8.406 -0.59,4.191 -0.904,9.334 -4.805,11.935 -2.293,1.76 -5.305,1.219 -7.97,1.76 -4.231,0.799 -8.438,1.752 -12.54,3.036 -2.35,0.557 -3.739,2.907 -3.998,5.168 -0.847,5.087 -0.799,10.264 -1.122,15.391 0.202,4.135 5.233,4.078 8.261,4.45 4.724,-0.226 9.423,1.93 14.099,0.589 3.916,-1.809 6.25,-6 10.433,-7.389 2.245,-1.074 4.619,0.913 5.548,2.875 0.968,3.481 1.445,7.138 1.299,10.764 0.275,7.332 0.291,14.697 1.494,21.956zm42.653 -60.151c0.339,1.195 0.71,2.39 1.058,3.602 2.034,5.588 4.078,11.305 7.792,16.037 -1.09,-6.816 4.433,-11.758 6.153,-17.878 1.987,-6.469 4.442,-13.122 9.367,-17.959 1.866,-1.777 4.861,-2.439 7.147,-1.066 3.763,1.986 6.718,5.143 9.714,8.099 4.789,4.748 7.534,11.136 12.371,15.835 4.046,-6.193 5.588,-13.622 6.411,-20.858 0.219,-2.123 0.178,-4.255 -0.024,-6.363 -0.565,-11.668 -4.74,-22.804 -10.392,-32.914 -3.335,-4.974 -6.541,-10.061 -10.312,-14.729 -3.19,-3.456 -5.176,-7.953 -8.778,-10.998 -1.881,-1.582 -3.884,0.404 -5.006,1.882 -2.883,3.868 -5.847,7.679 -8.754,11.515 -6.225,9.229 -13.089,18.459 -15.681,29.498 -3.788,11.701 -4.337,24.403 -1.066,36.297zm226.989 -34.044c3.311,-1.51 6.25,1.461 8.762,3.222 3.617,2.309 5.055,6.573 6.718,10.303 0.977,2.423 2.269,5.112 1.413,7.761 -0.638,1.744 -2.923,1.905 -4.408,1.267 -5.274,-2.454 -9.101,-7.13 -11.701,-12.225 -1.849,-2.996 -3.707,-7.397 -0.784,-10.328zm24.266 -29.862c2.003,4.248 4.562,8.463 4.805,13.268 0.218,2.398 1.058,5.063 -0.501,7.203 -0.824,1.308 -2.657,1.413 -3.819,0.524 -3.973,-2.697 -5.701,-7.55 -9.327,-10.578 -5.822,-5.967 -12.258,-11.386 -19.687,-15.254 -4.813,-2.753 -9.844,-5.135 -14.455,-8.22 -2.43,-1.857 -4.748,-4.409 -4.812,-7.647 0.42,-4.013 3.569,-6.816 6.08,-9.666 3.472,-3.723 6.412,-7.889 9.384,-12.016 6.363,-8.511 12.096,-17.595 19.896,-24.911 7.276,-7.203 15.585,-13.486 24.847,-17.919 2.245,-1.066 5.427,-2.366 7.446,-0.169 1.162,2.091 -0.63,4.191 -1.906,5.733 -1.486,1.97 -3.699,3.496 -4.482,5.919 5.798,-0.283 12.024,-1.122 17.394,1.704 3.044,1.219 5.119,3.965 6.161,7.001 1.324,2.608 0.008,6.282 -2.786,7.292 -5.378,2.277 -11.418,1.138 -16.974,2.673 -7.017,1.324 -13.364,4.812 -19.218,8.761 -6.597,5.128 -12.823,11.208 -16.385,18.879 9.456,0.243 18.202,-4.263 27.359,-5.951 1.978,-0.444 4.586,0.226 5.37,2.293 0.791,2.399 -0.138,4.91 -1.414,6.945 -2.6,4.304 -5.83,8.204 -9.423,11.717 -1.704,1.688 -3.698,3.109 -5.152,5.031 -1.405,2.551 0.113,5.281 1.599,7.388zm-223.316 99.654c4.797,-1.017 8.358,-4.691 11.515,-8.196 -2.325,-6.549 -6.064,-12.686 -11.046,-17.547 -1.599,-1.51 -4.159,-3.391 -6.291,-1.712 -3.488,2.625 -7.735,5.144 -8.939,9.658 -0.613,2.398 -2.035,5.378 -0.145,7.55 2.317,3.109 5.459,5.483 8.761,7.462 1.979,1.066 4.038,1.994 6.145,2.785zm102.796 211.228c3.488,-1.486 7.695,1.72 7.041,5.474 -1.05,4.232 -4.667,7.696 -8.866,8.819 -1.857,0.5 -4.078,0.92 -5.653,-0.461 -2.123,-1.986 -1.292,-5.337 0.089,-7.502 1.809,-2.689 4.215,-5.321 7.389,-6.33zm-191.492 62.04c3.222,-0.614 6.153,1.212 8.947,2.544 2.81,1.526 6.145,3.302 6.743,6.783 0.605,1.51 -0.84,2.802 -2.035,3.424 -5.547,1.752 -11.394,-1.462 -14.947,-5.604 -2.035,-2.084 -1.728,-6.194 1.292,-7.147zm-154.007 -455.36c-0.921,-2.204 1.356,-4.49 3.577,-4.005 4.433,0.517 8.196,3.27 12.048,5.329 9.335,6.259 17.975,13.712 24.871,22.635 7.429,8.802 13.421,18.718 21.044,27.366 2.358,3.4 6.492,5.887 6.912,10.344 -0.339,3.133 -2.447,5.758 -4.926,7.558 -6.807,4.789 -14.632,7.849 -21.471,12.59 -6.832,4.812 -13.098,10.562 -18.097,17.28 -1.728,2.148 -3.528,5.192 -6.718,4.934 -1.793,-0.961 -2.374,-3.23 -2.213,-5.12 0.194,-6.864 3.578,-13.033 6.832,-18.887 0.912,-1.446 1.623,-3.69 0.073,-4.983 -6.162,-5.999 -13.413,-11.644 -16.667,-19.88 -1.478,-2.77 0.702,-6.468 3.94,-6.105 10.191,0.331 19.292,6.565 29.611,6.016 -3.326,-5.943 -7.622,-11.418 -13.025,-15.593 -5.2,-4.086 -10.715,-7.906 -16.941,-10.255 -6.783,-2.907 -14.317,-2.681 -21.48,-3.828 -2.939,-0.525 -5.515,-3.278 -5.256,-6.355 0.508,-3.286 2.446,-6.468 5.531,-7.905 5.693,-3.319 12.468,-3.279 18.799,-2.455 -1.365,-3.432 -4.926,-5.338 -6.444,-8.681zm275.294 24.403c5.935,-1.437 12.218,-0.913 18.193,0.081 5.395,1.138 10.934,1.938 16.046,4.11 6.112,2.527 12.298,5.144 17.636,9.133 5.119,4.021 9.318,9.06 13.315,14.163 1.236,1.664 2.665,4.216 0.679,5.911 -1.947,2.253 -4.902,0.574 -7.106,-0.274 -6.727,-3.004 -13.599,-5.766 -20.834,-7.244 -6.573,-1.025 -13.324,-0.823 -19.76,-2.648 -8.301,-2.18 -15.698,-7.712 -20.236,-14.971 -1.938,-2.665 -1.034,-6.929 2.067,-8.261zm169.496 214.546c1.542,-1.631 3.916,-0.638 5.612,0.202 10.271,5.144 18.524,14.067 23.046,24.621 3.601,7.445 3.513,15.956 3.553,24.047 -0.573,4.619 -0.379,9.327 -1.445,13.889 -1.785,8.85 -4.474,17.588 -8.584,25.647 -1.155,1.978 -3.061,5.483 -5.774,3.488 -1.889,-3.262 -1.203,-7.566 -3.771,-10.546 -2.762,4.143 -4.53,8.826 -7.138,13.057 -3.747,6.283 -7.946,12.323 -12.799,17.806 -4.885,5.442 -11.475,8.971 -16.336,14.43 -2.463,2.648 -4.853,5.386 -6.969,8.325 -2.64,5.346 -4.062,11.491 -8.172,16.005 -1.041,1.236 -3.246,1.841 -4.465,0.557 -1.567,-1.469 -1.187,-3.836 -1.252,-5.757 -0.081,-4.845 1.373,-9.586 0.913,-14.438 0.105,-4.417 -0.743,-8.746 -1.486,-13.066 -0.573,-7.485 0.395,-15.989 6.266,-21.334 4.829,-6.056 12.549,-8.35 19.929,-9.27 5.58,-0.388 10.03,-4.442 12.961,-8.915 7.299,-9.933 11.45,-21.859 13.63,-33.899 0.856,-4.296 0.315,-8.657 -0.096,-12.961 -0.646,-8.89 -3.279,-17.603 -7.462,-25.468 -1.009,-1.914 -2.011,-4.684 -0.161,-6.42zm-289.2 59.933c1.607,-0.662 3.214,-1.332 4.821,-2.019 0.751,2.98 -0.55,6.177 -3.045,7.922 -0.694,-1.938 -1.275,-3.917 -1.776,-5.903zm146.32 159.942c2.721,-1.259 7.849,-0.476 7.251,3.481 -1.381,5.781 -8.479,8.906 -14.01,7.703 -3.012,-0.944 -2.77,-4.974 -0.783,-6.791 2.172,-1.97 4.812,-3.359 7.542,-4.393z"/>
 </g>
</svg>
