<?xml version="1.0" encoding="UTF-8"?>
<!DOCTYPE svg PUBLIC "-//W3C//DTD SVG 1.1//EN" "http://www.w3.org/Graphics/SVG/1.1/DTD/svg11.dtd">
<!-- Creator: CorelDRAW 2021 (64-Bit) -->
<svg xmlns="http://www.w3.org/2000/svg" xml:space="preserve" width="1556px" height="1616px" version="1.1" style="shape-rendering:geometricPrecision; text-rendering:geometricPrecision; image-rendering:optimizeQuality; fill-rule:evenodd; clip-rule:evenodd"
viewBox="0 0 254.004 263.784"
 xmlns:xlink="http://www.w3.org/1999/xlink"
 xmlns:xodm="http://www.corel.com/coreldraw/odm/2003">
 <defs>
  <style type="text/css">
   <![CDATA[
    .fil0 {fill:black;fill-rule:nonzero}
   ]]>
  </style>
 </defs>
 <g id="__x0023_Layer_x0020_1">
  <metadata id="CorelCorpID_0Corel-Layer"/>
  <path class="fil0" d="M13.887 1.402c6.471,-2.639 13.779,-1.197 20.026,1.394 5.403,2.101 10.17,5.522 14.815,8.933 5.084,3.635 9.773,7.814 15.051,11.177 3.536,2.173 7.821,3.901 12.014,2.884 4.794,-0.854 8.718,-3.952 13.173,-5.72 5.845,-2.737 12.272,-4.162 18.723,-4.264 4.774,-0.35 9.555,0.354 14.251,1.183 2.391,0.357 4.791,0.902 7.223,0.616 4.41,-0.568 8.766,-1.598 13.221,-1.782 5.804,-0.53 11.639,0.357 17.271,1.738 3.948,1.016 7.6,2.866 11.211,4.713 2.662,1.431 5.403,2.819 8.389,3.434 4.23,1.126 8.555,-0.649 12.167,-2.775 5.831,-3.696 11.027,-8.273 16.594,-12.34 4.645,-3.247 9.429,-6.423 14.812,-8.321 4.87,-1.833 10.266,-3.002 15.418,-1.717 2.802,0.599 5.396,2.03 7.511,3.951 3.312,3.248 5.614,7.43 6.76,11.916 2.252,9.249 1.861,19.032 -0.591,28.199 -1.486,5.152 -3.652,10.175 -6.842,14.507 -1.496,2.339 -3.951,4.097 -4.699,6.872 -0.368,1.126 0.013,2.299 0.204,3.421 0.809,3.87 0.275,8.192 -2.221,11.364 -0.928,1.133 -1.578,2.751 -0.938,4.173 0.857,2.251 2.377,4.148 3.679,6.148 1.785,2.683 3.489,5.43 4.937,8.31 2.313,4.659 4.424,9.474 5.472,14.592 0.68,1.931 1.01,3.992 1.302,6.019 0.544,3.281 0.979,6.607 0.925,9.939 -0.014,0.789 -0.432,2.193 -1.489,1.778 -0.912,-0.697 -1.65,-1.591 -2.551,-2.291 0.395,4.155 1.327,8.256 1.36,12.445 -0.013,1.959 0.442,3.918 0.065,5.869 -0.071,5.512 -1.061,11.011 -2.764,16.248 -0.341,1.095 -0.524,2.394 -1.52,3.115 -0.582,0.37 -1.384,0.044 -1.639,-0.562 -0.847,-1.669 -1.687,-3.346 -2.69,-4.927 -0.099,0 -0.296,0 -0.395,0 -1.023,4.927 -2.366,9.831 -4.539,14.388 -0.323,0.686 -0.64,1.377 -0.963,2.067l-0.064 0.01c-2.309,5.101 -5.747,9.63 -9.528,13.731 -0.901,0.983 -1.867,1.905 -2.887,2.761 -1.323,1.214 -2.721,2.367 -4.241,3.319 -0.836,0.578 -1.73,-0.421 -1.693,-1.241 0.024,-1.295 0.037,-2.591 0.051,-3.883 -0.728,0.292 -1.156,0.979 -1.697,1.506 -2.227,2.316 -4.73,4.346 -7.246,6.335 -2.588,1.915 -5.179,3.88 -8.11,5.244 -0.677,0.398 -1.653,0.03 -1.806,-0.752 -0.017,-0.881 0.099,-1.758 0.129,-2.632 -1.285,0.476 -2.149,1.639 -3.22,2.455 -1.479,1.401 -3.084,2.663 -4.512,4.115 -0.959,1.163 -2.265,2.04 -3.034,3.349 -0.846,2.316 -1.435,4.73 -2.55,6.944 -2.686,5.832 -7.746,10.174 -13.194,13.364 -3.087,1.816 -5.923,4.346 -7.192,7.783 -1.156,3.119 -2.329,6.264 -4.223,9.029 -3.434,5.332 -8.94,9.12 -14.948,11l-0.004 0.02c-3.917,1.279 -7.936,2.493 -12.085,2.602 -2.023,0.411 -4.091,0.381 -6.138,0.595 -0.996,0.017 -2.033,0.126 -2.999,-0.167 -3.608,0.045 -7.165,-0.568 -10.708,-1.139 -4.427,-1.027 -8.872,-2.288 -12.796,-4.648 -4.635,-2.554 -8.338,-6.665 -10.684,-11.385 -1.115,-2.044 -1.772,-4.291 -2.758,-6.393 -1.275,-2.254 -2.71,-4.529 -4.89,-6.015 -1.761,-1.19 -3.584,-2.292 -5.338,-3.489 -4.652,-3.067 -8.42,-7.484 -10.515,-12.667 -0.877,-1.839 -1.336,-3.835 -2.074,-5.723 -1.003,-1.421 -2.353,-2.553 -3.618,-3.73 -1.955,-1.846 -4.057,-3.519 -6.073,-5.295 -0.276,-0.248 -0.592,-0.428 -0.915,-0.595 0.044,0.966 0.214,1.966 0.003,2.918 -0.428,0.748 -1.4,0.758 -2.074,0.36 -3.149,-1.462 -5.957,-3.536 -8.753,-5.566 -1.377,-1.163 -2.798,-2.289 -4.1,-3.53 -0.708,-0.605 -1.374,-1.254 -2.047,-1.894 -0.388,-0.408 -0.84,-0.775 -1.095,-1.282 -0.191,-0.153 -0.572,-0.462 -0.759,-0.619l-0.313 0.191c-0.119,1.401 0.079,2.815 -0.074,4.216 -0.194,0.514 -0.813,0.595 -1.228,0.857 -5.543,-3.584 -10.086,-8.572 -13.653,-14.091 -4.604,-6.774 -7.464,-14.636 -8.831,-22.685 -1.727,1.418 -2.281,3.778 -3.485,5.57 -0.861,0.871 -1.969,-0.051 -2.262,-0.965 -3.556,-10.073 -4.216,-21.07 -2.397,-31.57 0.265,-1.666 0.619,-3.319 0.786,-4.999 -1,0.694 -1.752,1.677 -2.724,2.404 -0.932,0.476 -1.608,-0.697 -1.561,-1.503 -0.082,-3.638 0.344,-7.287 1.092,-10.844 2.002,-10.786 6.607,-21.021 12.989,-29.917 1.255,-1.986 3.027,-4.006 2.799,-6.515 -0.497,-1.646 -1.877,-2.799 -2.605,-4.329 -1.673,-3.4 -1.367,-7.369 -0.68,-10.983 0.208,-1.894 -0.857,-3.598 -2.108,-4.917 -1.904,-2.408 -3.965,-4.727 -5.41,-7.454 -4.462,-7.767 -6.291,-16.795 -6.57,-25.67 0.105,-5.465 0.656,-11.062 2.809,-16.139 2.016,-5.202 5.73,-10.099 11.078,-12.146zm86.518 212.46c1.588,-0.49 3.251,0.269 4.547,1.17 0.625,0.496 1.465,1.064 1.353,1.986 0.218,1.105 -1.061,1.7 -1.986,1.577 -1.911,-0.105 -4.132,-0.982 -4.846,-2.907 -0.285,-0.762 0.272,-1.506 0.932,-1.826zm63.18 -1.404c1.415,-0.623 3.173,1.047 2.17,2.414 -1.387,1.972 -3.853,3.485 -6.335,3.087 -0.52,-0.095 -0.918,-0.496 -1.173,-0.928 -0.133,-0.85 0.353,-1.656 0.969,-2.197 1.251,-1.118 2.805,-1.819 4.369,-2.376zm6.771 0.945c0.792,-0.752 1.72,-1.34 2.693,-1.83 1.078,-0.486 2.19,-0.908 3.193,-1.55 1.789,-1.048 3.944,-1.911 4.873,-3.911 0.554,-1.346 0.993,-2.893 0.653,-4.335 -0.225,-0.857 -1.184,-0.279 -1.738,-0.14 -2.343,1.034 -4.91,2.398 -7.532,1.673 -1.153,-0.255 -2.333,0.014 -3.434,0.351 -1.799,0.54 -3.197,2.019 -5.108,2.244 -0.969,0.238 -2.36,0.303 -2.802,-0.813 -0.126,-1.142 0.612,-2.163 1.51,-2.785 1.755,-1.387 3.873,-2.982 6.25,-2.309 2.159,0.017 4.648,0.153 6.372,-1.397 2.119,-1.721 4.778,-2.904 6.244,-5.312 1.166,-1.918 0.979,-4.25 0.816,-6.393 -0.231,-0.772 -0.493,-1.533 -0.765,-2.285 -0.15,-0.387 -0.3,-0.768 -0.442,-1.149 -0.813,-1.921 -1.867,-3.734 -3.149,-5.38 -2.534,-3.233 -4.975,-6.607 -6.57,-10.415 -0.588,-1.384 -1.285,-2.843 -1.051,-4.387 0.089,-0.881 1.075,-1.765 1.956,-1.292 2.081,0.922 3.539,2.754 5.056,4.383 3.537,3.877 6.645,8.277 8.379,13.265 0.292,0.766 0.588,1.534 0.864,2.313 0.816,2.574 1.414,5.226 1.666,7.919 0.35,2.578 0.615,5.21 0.238,7.801 -0.163,1.761 -0.058,3.557 0.377,5.278 0.187,-0.075 0.558,-0.221 0.745,-0.293 4.332,-2.856 7.644,-7.015 10.276,-11.439 1.935,-3.166 3.193,-6.682 5.023,-9.902 0.486,-0.826 1.329,-1.717 2.387,-1.507 1.258,0.677 1.02,2.35 1.125,3.554 0.143,2.635 -0.976,5.213 -0.741,7.818 1.231,-0.443 2.142,-1.452 3.122,-2.279 2.978,-2.887 5.4,-6.362 7.005,-10.198 1.118,-2.751 1.652,-5.678 2.291,-8.565 0.259,-0.868 0.551,-1.966 1.5,-2.299 1.027,-0.18 1.578,0.894 1.928,1.676 0.915,2.37 1.258,4.914 1.54,7.423 0.031,0.558 0.252,1.075 0.49,1.578 5.138,-6.736 7.57,-15.162 8.702,-23.453 -0.707,-1.108 -0.459,-2.455 -0.374,-3.686 0.17,-1.652 0.204,-3.332 0.697,-4.93 -0.109,-1.843 -0.473,-3.792 0.126,-5.577 0.268,-0.888 1.489,-0.799 2.033,-0.238 2.404,2.343 3.486,5.628 5.359,8.348 0.102,0 0.303,0.003 0.405,0.003 0.364,-1.19 0.323,-2.451 0.544,-3.665 0.35,-3.574 -0.061,-7.141 -0.422,-10.698 -0.52,-4.366 -1.707,-8.603 -2.951,-12.806 -0.741,-2.568 -2.129,-4.945 -2.5,-7.614 -0.176,-0.741 0.487,-1.765 1.323,-1.445 1.782,0.636 3.088,2.084 4.642,3.105 -1.136,-5.968 -3.727,-11.562 -6.662,-16.843 -2.798,-5.067 -6.318,-9.701 -8.895,-14.894 -0.769,-1.646 -1.466,-3.353 -1.755,-5.155 -0.075,-0.768 -0.258,-1.857 0.612,-2.248 1.272,-0.404 2.272,0.731 3.36,1.18 0.857,-0.588 1.483,-1.445 2.118,-2.251 0.191,-0.462 0.398,-0.911 0.623,-1.353 0.877,-2.717 0.017,-5.58 -1.354,-7.964 -0.955,-1.459 -0.466,-3.271 0.303,-4.686 0.646,-1.013 1.642,-1.727 2.496,-2.554 3.866,-3.709 6.933,-8.246 8.953,-13.207 2.415,-6.345 3.39,-13.224 2.945,-19.991 -0.391,-4.754 -1.411,-9.8 -4.686,-13.463 -2.384,-2.978 -6.389,-4.247 -10.103,-3.992 -4.93,0.385 -9.497,2.598 -13.564,5.295 -3.23,2.258 -6.325,4.713 -9.297,7.301 -0.044,0.037 -0.132,0.108 -0.177,0.142 -4.852,4.305 -9.722,8.702 -15.373,11.95 -2.023,1.197 -4.247,1.992 -6.332,3.063 -0.051,0.65 0.096,1.497 -0.602,1.86 -1.22,0.735 -2.662,0.126 -3.883,-0.275 -6.675,-2.717 -12.238,-7.491 -18.767,-10.487 -5.58,-2.673 -11.868,-3.873 -18.039,-3.496 -2.126,0.201 -4.241,0.619 -6.271,1.282 -2.71,1.068 -4.964,3.431 -5.6,6.318 -0.83,2.904 -0.147,5.968 0.778,8.763 2.034,5.169 6.165,9.052 9.148,13.639 0.278,0.429 0.561,0.854 0.84,1.289 2.655,4.22 4.628,8.974 5.107,13.969 0.262,1.633 0.428,3.275 0.483,4.928 0.078,1.067 0.061,2.142 0.007,3.213 -0.011,0.619 -0.041,1.238 -0.099,1.857 -0.095,0.85 -0.146,1.714 -0.32,2.557 -0.414,2.01 -0.887,4.023 -1.652,5.93 -0.799,2.129 -2.027,4.054 -2.969,6.118 -1,2.322 0.133,4.866 1.592,6.712 0.598,0.823 1.598,1.129 2.407,1.687 1.034,1.118 0.881,2.859 0.463,4.216 -1.004,2.84 -2.16,5.703 -2.262,8.756 0.085,3.442 1.918,6.465 3.666,9.311 1.874,3.295 0.99,7.216 -0.184,10.586 -0.646,2.091 -1.01,4.25 -1.2,6.426 -0.092,2.486 0.228,4.951 0.469,7.42 1.391,6.005 4.659,11.358 6.434,17.237 1.221,4.247 1.601,8.814 0.51,13.129 -0.255,0.707 -0.837,1.697 -1.724,1.459 -1.085,-0.435 -1.347,-1.697 -1.602,-2.703 -0.387,-1.874 -1.132,-3.646 -1.577,-5.502 -1.776,-6.111 -4.469,-11.96 -5.686,-18.227 -0.218,-2.139 -0.918,-4.179 -1.741,-6.151 -0.973,-2.513 -1.772,-5.114 -2.221,-7.77 -0.482,-2.887 0.463,-5.713 0.646,-8.573 0.103,-2.951 -1.727,-5.406 -2.682,-8.062 -0.609,-2.217 -0.436,-4.577 0.061,-6.794 0.421,-2.391 1.445,-4.601 2.567,-6.73 0.745,-1.7 -0.908,-3.081 -1.765,-4.352 -0.955,-1.259 -1.884,-2.544 -3.077,-3.591 -1.272,0.972 -2.513,1.986 -3.727,3.03 -1.415,1.21 -2.686,2.577 -3.853,4.029 -0.884,1.109 -2.462,1.761 -3.818,1.166 -2.301,-1.163 -12.334,-11.484 -14.32,-13.523 -1.588,-1.656 -2.016,-4.009 -3.203,-5.917 -3.397,-6.57 -4.288,-14.268 -2.918,-21.504 0.902,-6.519 3.755,-12.698 7.879,-17.798 3.234,-4.312 7.145,-8.491 8.229,-13.956 1.075,-3.819 0.225,-8.491 -2.978,-11.065 -1.874,-1.669 -4.418,-2.193 -6.808,-2.649 -3.533,-0.54 -7.107,-0.098 -10.63,0.262 -1.476,0.33 -2.945,0.697 -4.404,1.081 -4.675,1.459 -8.99,3.85 -13.112,6.461 -4.033,2.282 -7.831,5.142 -12.353,6.407 -0.908,0.258 -2.017,0.384 -2.785,-0.279 -0.507,-0.469 -0.293,-1.228 -0.381,-1.833 -2.462,-1.044 -4.972,-2.01 -7.254,-3.424 -2.75,-1.731 -5.474,-3.533 -7.916,-5.689 -3.295,-2.595 -6.253,-5.577 -9.555,-8.161 -5.706,-4.737 -12.082,-9.457 -19.692,-10.246 -4.553,-0.571 -9.406,1.354 -11.949,5.25 -0.537,0.837 -0.997,1.718 -1.432,2.609 -2.166,4.883 -2.706,10.374 -2.322,15.659 0.646,9.32 3.805,18.869 10.548,25.571 1.571,1.772 3.999,2.948 4.587,5.427 0.894,2.908 -1.782,5.237 -1.734,8.093 -0.347,2.632 1.061,5.087 2.986,6.767 0.938,-0.53 1.856,-1.374 3.012,-1.255 0.905,0.102 1.207,1.214 1.143,1.986 -0.429,2.999 -1.86,5.723 -3.288,8.352 -1.33,2.655 -3.112,5.043 -4.72,7.528 -3.666,5.679 -6.906,11.708 -8.855,18.206 -0.316,0.993 -0.49,2.024 -0.51,3.068 1.51,-0.976 2.833,-2.272 4.506,-2.979 0.523,-0.252 1.366,-0.061 1.475,0.585 0.327,1.761 -0.656,3.386 -1.278,4.968 -1.799,4.413 -3.224,8.997 -4.023,13.704 -0.738,4.978 -1.523,10.017 -1.02,15.063 0.095,0.735 0.207,1.476 0.473,2.177 0.479,-0.01 0.595,-0.551 0.819,-0.878 1.313,-2.519 2.727,-4.991 4.4,-7.29 0.52,-0.653 0.708,-1.479 0.935,-2.258 0.541,-1.938 1.524,-3.713 2.564,-5.42 0.092,-0.745 -0.02,-1.626 0.595,-2.18 0.286,-0.408 0.762,-0.075 0.789,0.347 -0.387,2.411 -0.602,4.862 -1.336,7.205 -0.578,1.636 -0.258,3.38 -0.479,5.067 -0.106,1.598 -0.453,3.176 -0.443,4.784 0.293,5.441 0.731,10.943 2.439,16.156 0.931,2.792 1.686,5.682 3.22,8.226 1.084,1.826 1.931,3.859 3.523,5.321 0.499,-3.04 0.799,-6.134 1.788,-9.069 0.32,-0.717 0.867,-1.574 1.752,-1.564 1.02,0.004 1.509,1.078 1.775,1.911 0.904,3.387 1.35,6.941 2.907,10.123 0.064,0.119 0.187,0.357 0.248,0.476 0.626,1.136 1.285,2.255 1.996,3.343 2.058,2.982 4.601,5.706 7.644,7.702 -0.091,-3.424 -1.312,-6.852 -0.479,-10.273 0.085,-0.605 0.534,-1.288 1.221,-1.227 1.003,0.044 1.663,0.955 2.152,1.737 2.248,3.908 3.819,8.175 6.362,11.919 2.228,3.254 4.873,6.253 8.032,8.637 0.507,0.33 1.034,0.639 1.561,0.949 0.136,-0.486 0.347,-0.959 0.374,-1.462 -0.66,-1.581 -0.483,-3.312 -0.483,-4.975 -0.023,-0.891 0.225,-1.745 0.531,-2.564 0.34,-3.091 0.789,-6.179 1.499,-9.202 0.113,-0.452 0.235,-0.894 0.378,-1.326 0.095,-0.296 0.19,-0.592 0.282,-0.881 0.493,-2.206 1.401,-4.281 2.408,-6.294 1.445,-3.271 3.638,-6.131 5.855,-8.906 1.564,-1.853 3.146,-3.743 5.152,-5.134 0.724,-0.5 2.074,-0.51 2.384,0.486 0.499,1.863 -0.313,3.73 -1.004,5.434 -1.588,3.856 -4.318,7.056 -6.624,10.483 -1.877,2.439 -3.067,5.339 -3.716,8.335 -0.419,2.163 -0.371,4.553 0.789,6.495 1.571,2.078 3.743,3.567 5.988,4.835 1.435,1.265 3.404,1.36 5.202,1.67 1,0.197 1.976,-0.252 2.976,-0.191 1.166,0.177 2.231,0.738 3.162,1.449 1.071,0.789 2.333,1.558 2.792,2.88 0.33,0.973 -0.605,1.813 -1.517,1.871 -1.635,0.068 -3.189,-0.64 -4.543,-1.5 -1.288,-0.837 -2.822,-1.177 -4.325,-1.34 -1.449,-0.119 -2.914,0.412 -4.342,0.024 -1.486,-0.408 -2.897,-1.03 -4.275,-1.707 -0.435,-0.184 -1.037,-0.602 -1.35,-0.01 -0.7,2.71 0.657,5.729 3.054,7.154 2.108,1.704 4.873,2.211 7.008,3.86 0.589,0.466 1.422,0.925 1.476,1.768 0.207,0.881 -0.646,1.557 -1.432,1.693 -2.254,0.449 -4.335,-0.918 -6.562,-0.972 -0.13,0.071 -0.385,0.214 -0.514,0.286 0.024,1.027 0.633,1.911 1.132,2.771 1.82,3.071 4.948,5.441 8.519,5.974 0.931,-0.856 2.115,-1.686 3.454,-1.4 2.01,0.605 3.52,2.55 5.751,2.482 2.111,0.146 4.264,-0.895 6.321,-0.112 0.629,0.285 1.438,1.146 0.84,1.826 -1.574,1.713 -3.996,2.067 -6.134,2.645 -1.497,0.432 -3.078,0.089 -4.594,0.398 -0.041,0.157 -0.119,0.469 -0.157,0.626 1.007,1.091 2.18,2.101 3.628,2.54 1.493,0.605 3.125,0.513 4.703,0.503 4.778,-0.309 9.436,-1.666 13.837,-3.509 3.04,-1.354 6.131,-2.792 8.654,-4.995 2.659,-2.279 3.152,-7.226 0.092,-9.379 -1.537,-1.187 -2.918,-2.622 -3.744,-4.403 -1.289,-2.918 -4.183,-4.826 -7.182,-5.645 -2.125,-0.524 -4.339,-0.735 -6.389,-1.547 -1.765,-0.83 -3.37,-1.996 -4.666,-3.455 -1.819,-1.908 -2.707,-4.499 -3.149,-7.049 -0.306,-1.905 -0.262,-3.918 0.453,-5.727 0.353,-1.01 1.917,-1.2 2.445,-0.231 0.799,1.554 0.87,3.411 1.839,4.897 0.721,1.122 1.7,2.258 3.067,2.54 1.701,0.027 3.374,-0.49 5.084,-0.364 2.261,-0.003 4.421,0.724 6.525,1.479 2.313,0.877 4.384,2.272 6.693,3.159 1.088,0.469 2.234,0.796 3.41,0.939 1.269,0.034 2.551,-0.147 3.727,-0.64 2.989,-1.261 5.699,-3.155 8.841,-4.05 2.217,-0.622 4.53,-1.186 6.845,-0.839 1.52,0.125 3.326,0.836 4.635,-0.32 2.051,-1.571 2.425,-4.264 3.316,-6.512 0.537,-1.343 2.502,-1.057 2.849,0.265 1.269,5.332 -0.663,11.49 -5.26,14.663 -2.166,1.636 -4.938,2.04 -7.539,2.506 -2.013,0.289 -3.846,1.235 -5.546,2.316 -1.214,0.932 -2.122,2.203 -2.86,3.533 -0.653,1.255 -1.408,2.489 -2.486,3.428 -1.064,1.01 -2.55,1.761 -2.958,3.284 -0.646,2.109 -0.432,4.683 1.156,6.332 1.993,2.265 4.812,3.513 7.457,4.842 4.723,2.296 9.821,3.846 15.047,4.431 2.347,0.201 4.819,0.014 6.968,-1.013 0.938,-0.653 2.261,-1.398 2.207,-2.707 -3.523,0.238 -7.083,-0.486 -10.185,-2.183 -0.37,-0.262 -0.659,-0.632 -0.84,-1.041 -0.102,-1.054 0.973,-1.649 1.867,-1.781 1.949,-0.228 3.86,0.493 5.805,0.459 2.356,-0.068 3.849,-2.306 6.114,-2.676 1.224,-0.177 2.149,0.785 3.05,1.451 3.621,-0.686 6.75,-3.08 8.603,-6.229 0.418,-0.813 1.143,-1.714 0.806,-2.67 -2.537,-0.108 -5.043,1.755 -7.566,0.752 -1.037,-0.411 -1.176,-1.744 -0.384,-2.472zm-87.684 -27.112c1.401,-0.469 2.778,0.429 3.754,1.364 0.853,0.853 1.928,1.86 1.721,3.196 0.044,1.139 -1.187,1.904 -2.235,1.663 -1.863,-0.51 -3.808,-1.683 -4.359,-3.652 -0.343,-0.983 0.116,-2.197 1.119,-2.571zm41.506 47.661c-3.027,1.04 -5.995,2.241 -9.022,3.281 -3.856,1.126 -7.732,2.224 -11.707,2.836 -1.629,0.248 -3.228,1.731 -2.615,3.503 0.999,2.693 2.948,4.998 5.355,6.556 4.084,2.727 8.943,3.965 13.748,4.658 8.501,0.993 17.431,0.527 25.378,-2.887 3.339,-1.53 6.532,-3.859 8.096,-7.287 0.582,-1.108 0.789,-2.751 -0.306,-3.611 -1.544,-1.095 -3.529,-1.109 -5.315,-1.493 -4.821,-1.139 -9.613,-2.448 -14.213,-4.295 -2.959,-1.163 -6.233,-2.332 -9.399,-1.261zm-26.687 -57.097c-0.296,-2.557 -0.306,-5.2 0.354,-7.706 1.132,-7.059 5.417,-13.095 7.141,-19.987 0.139,-0.796 0.122,-1.636 0.469,-2.377 0.102,-3.346 0.289,-6.76 -0.582,-10.032 -0.639,-2.689 -1.802,-5.318 -1.55,-8.14 -0.079,-2.734 1.751,-4.9 2.995,-7.165 1.585,-2.799 2.337,-6.114 1.731,-9.304l-0.057 -0.149c-0.898,-3.34 -2.014,-6.733 -1.728,-10.236 0.041,-1.322 0.775,-2.455 1.489,-3.512 0.504,0.285 1.089,0.503 1.432,0.996 0.735,0.955 0.565,2.251 1.058,3.315 0.765,1.813 1.18,3.758 1.979,5.557 1.989,2.485 3.628,5.383 4.039,8.586 0.191,2.625 -0.482,5.267 -1.608,7.627 -1.126,2.2 -2.404,4.458 -2.455,6.998 -0.201,2.411 0.942,4.71 0.683,7.121 -0.261,3.268 -1.564,6.308 -2.482,9.422 -0.561,1.779 -1.245,3.516 -1.734,5.315 -0.476,2.177 -1.044,4.339 -1.833,6.424 -1.693,4.298 -2.972,8.752 -4.526,13.098 -0.184,1.551 -0.894,3.023 -1.19,4.567 -0.289,1.044 -0.248,2.346 -1.241,3.027 -0.633,0.615 -1.524,-0.011 -1.864,-0.626 -0.449,-0.861 -0.476,-1.874 -0.52,-2.819zm-54.152 -24.446c0.632,1.047 1.343,2.044 2.067,3.033 0.806,0.796 1.547,1.728 2.608,2.2 1.218,0.578 2.592,0.616 3.914,0.711 3.442,0.615 6.72,2.526 8.597,5.533 0.802,1.248 1.129,2.72 1.353,4.168 0.313,2.53 -0.67,4.979 -0.629,7.502 -0.01,1.557 -0.041,3.135 0.279,4.669 0.231,1.271 0.479,2.591 0.214,3.88 -0.197,0.602 -0.588,1.312 -1.292,1.384 -1.146,-0.157 -1.867,-1.201 -2.398,-2.126 -1.278,-2.404 -2.489,-4.913 -2.842,-7.644 -0.368,-2.193 -0.714,-4.597 -2.262,-6.311 -1.142,-1.292 -2.768,-2.102 -4.468,-2.333 -0.826,1.061 -1.482,2.748 -3.036,2.795 -2.275,-0.581 -3.564,-2.686 -4.802,-4.495 -1.578,-2.21 -2.615,-4.737 -3.54,-7.274 -0.149,-0.425 -0.364,-0.833 -0.391,-1.282 -0.602,-1.343 -1.013,-2.754 -1.448,-4.155 -1.316,0.976 -1.242,2.975 -2.469,4.033 -0.915,0.728 -1.942,-0.384 -2.217,-1.241 -1.578,-3.979 -2.108,-8.318 -2.139,-12.572 0.626,-3.686 0.391,-7.562 1.901,-11.058 1.401,-3.224 3.781,-5.951 6.607,-8.018 1.476,-1.316 3.207,-2.381 5.131,-2.894 1.143,-0.214 2.003,1.095 1.476,2.098 -1.088,2.292 -2.282,4.55 -3.03,6.985 -0.626,2.166 -0.901,4.417 -1.122,6.658 -0.017,1.248 -0.014,2.496 0.099,3.744 0.391,1.713 0.602,3.475 1.135,5.155 0.395,1.135 0.725,2.292 1.191,3.404 0.493,1.156 0.948,2.325 1.513,3.451zm33.334 -1.051c0.116,0.194 0.344,0.585 0.456,0.779 0.605,1.506 0.357,3.213 -0.496,4.57 -1.388,2.289 -3.438,4.05 -5.203,6.029 -0.639,0.687 -1.762,1.534 -2.622,0.69 -0.938,-1.081 -0.496,-2.614 -0.728,-3.903 -0.051,-1.775 -1.295,-3.132 -2.363,-4.421 -0.442,-0.35 -0.87,-0.704 -1.289,-1.074 -1.965,-1.316 -4.186,-2.245 -6.494,-2.748 -3.642,-1.088 -6.846,-3.972 -7.869,-7.692 -1.391,-4.352 -0.35,-9.12 1.795,-13.034 0.425,-0.942 1.884,-1.149 2.401,-0.173 0.952,1.666 1.061,3.659 1.724,5.437 0.792,1.986 1.857,3.911 3.451,5.366 1.867,1.687 3.836,3.254 5.662,4.989l0.058 0.01c0.459,0.268 0.911,0.554 1.364,0.846 1.826,1.027 3.764,1.891 5.835,2.299 1.574,0.306 3.193,0.82 4.318,2.03zm109.488 -3.322c1.524,-1.105 3.54,-1.578 4.781,-3.111 1.357,-1.157 2.758,-2.262 4.115,-3.414 2.805,-2.68 4.359,-6.366 5.097,-10.12 0.323,-0.84 0.983,-1.85 2.027,-1.649 1.21,0.343 1.622,1.696 2.057,2.737 0.52,2.214 1.312,4.38 1.346,6.682 -0.034,4.053 -1.707,8.43 -5.399,10.49 -3.132,1.643 -6.744,2.285 -9.671,4.339 -1.48,1.099 -2.908,2.421 -3.567,4.186 -0.65,1.486 0.088,3.183 -0.538,4.672 -0.228,0.623 -0.928,1 -1.571,0.915 -1.078,-0.452 -1.785,-1.425 -2.587,-2.224 -1.544,-1.533 -3.006,-3.166 -4.244,-4.961 -1.35,-1.881 -0.854,-4.92 1.217,-6.083 2.146,-1.248 4.744,-1.289 6.937,-2.459zm-97.3 -15.305c-0.66,-2.173 -1.986,-4.125 -3.768,-5.526 -0.493,1.357 -1.092,2.832 -2.431,3.564 -2.371,1.431 -5.727,0.268 -6.856,-2.214 -0.887,-1.809 -0.666,-3.843 -0.044,-5.689 -1.428,-0.5 -2.952,-0.684 -4.448,-0.412 -0.598,0.164 -1.527,-0.003 -1.734,0.762 -0.415,0.966 -0.405,2.037 -0.197,3.054 0.995,10.472 15.698,13.193 19.478,6.461zm82.182 -14.551c4.927,-2.618 10.725,-3.336 16.213,-2.581 3.424,0.296 6.753,1.262 10.191,1.449 1.894,0.211 3.86,-0.228 5.682,0.5 0.98,0.295 1.969,1.445 1.374,2.482 -0.867,1.343 -2.452,1.976 -3.955,2.295 -2.173,0.735 -4.723,0.554 -6.552,2.129 -1.204,0.983 -1.612,2.533 -1.867,3.995 -1.313,4.044 -3.492,7.971 -6.94,10.566 -3.472,2.672 -7.852,3.907 -12.188,4.05 -1.509,-0.079 -3.04,-0.102 -4.492,0.384 -1.812,0.846 -3.281,2.36 -3.924,4.267 -1.367,3.618 -0.367,7.502 0.153,11.181 0.204,1.418 -1.169,3.373 -2.707,2.455 -2.815,-2.662 -4.189,-6.522 -4.893,-10.252 -1.598,-7.372 0.082,-15.091 3.265,-21.817 2.254,-4.69 5.967,-8.753 10.64,-11.103zm7.851 17.342c4.492,-2.319 7.709,-7.743 6.128,-12.785 -2.006,-0.33 -4.067,-0.497 -6.046,0.081 0.241,1.007 0.636,2.003 0.639,3.05 -0.234,1.724 -0.874,3.595 -2.418,4.574 -1.69,1.197 -4.206,1.143 -5.753,-0.279 -0.939,-0.789 -1.302,-1.992 -1.751,-3.081 -1.612,1.537 -3.472,3.296 -3.652,5.645 0.938,1.874 2.904,2.894 4.818,3.509 2.666,0.708 5.502,0.286 8.035,-0.714zm-109.542 -20.073c6.016,-0.686 12.303,0.823 17.22,4.394 1.847,1.415 3.598,2.989 5.009,4.846 1.959,2.41 3.227,5.28 4.38,8.144 1.557,4.175 2.353,8.65 2.315,13.105 -0.336,4.774 -1.176,9.766 -4.083,13.711 -0.694,0.958 -1.589,2.05 -2.843,2.155 -1.092,-0.503 -1.578,-1.778 -1.585,-2.91 0.201,-3.438 1.711,-6.907 0.656,-10.341 -0.639,-2.414 -2.397,-4.608 -4.821,-5.39 -1.728,-0.408 -3.513,0.133 -5.254,-0.2 -4.084,-0.476 -8.277,-1.687 -11.405,-4.479 -3.482,-2.775 -5.519,-6.984 -6.451,-11.265 -0.275,-1.398 -1.234,-2.602 -2.458,-3.292 -1.415,-0.871 -3.136,-0.833 -4.683,-1.323 -1.537,-0.459 -3.322,-0.874 -4.295,-2.261 -0.714,-1.003 0.082,-2.33 1.116,-2.697 1.622,-0.792 3.455,-0.36 5.182,-0.449 4.036,-0.326 7.977,-1.316 12,-1.748zm137.661 -6.182c-2.095,-0.768 -4.367,-0.904 -6.444,-1.707 -1.146,-0.438 -1.952,-1.523 -2.139,-2.72 0.071,-1.044 0.49,-2.02 0.619,-3.05 0.507,-6.838 -0.017,-13.765 -1.806,-20.399 -0.534,-2.619 -1.442,-5.142 -2.305,-7.651 -0.463,-0.701 -0.646,-1.561 -0.932,-2.343 -1.364,-2.581 -2.561,-5.257 -4.111,-7.736 -1.938,-3.282 -4.207,-6.352 -6.366,-9.488 -1.608,-2.343 -3.706,-4.277 -5.543,-6.43 -0.669,-0.819 -1.407,-1.751 -1.377,-2.866 0.333,-0.959 1.527,-1.017 2.34,-0.694 3.971,1.69 7.297,4.519 11.116,6.505 1.629,1.027 3.458,2.05 4.322,3.866 0.921,1.792 1.819,3.601 2.737,5.4 1.466,3.251 3.339,6.311 4.621,9.647 3.717,8.886 6.512,18.25 7.24,27.891 0.051,1.156 0.731,2.343 1.894,2.683 2.482,0.945 4.795,2.326 7.355,3.067 1.064,0.326 1.809,-0.86 1.836,-1.789 0.198,-1.52 -0.479,-3.366 0.738,-4.59 1.299,-0.657 2.445,0.571 3.18,1.503 1.407,2.183 2.356,4.628 3.179,7.083 2.02,5.403 4.067,10.925 4.547,16.72 0.582,3.174 -20.038,-11.567 -24.701,-12.902zm-183.298 9.903c0.105,-1.082 0.5,-2.119 0.833,-3.146 0.275,-1.632 0.772,-3.281 1.659,-4.696 1.405,-2.197 2.812,-4.386 4.23,-6.573 3.659,-6.42 7.879,-12.493 11.953,-18.645 2.986,-3.975 5.73,-8.133 8.505,-12.255 0.982,-1.326 1.761,-2.785 2.581,-4.21 0.217,-0.428 0.642,-1.115 0.054,-1.441 -3.567,0.976 -6.876,2.727 -9.926,4.798 -1.738,1.2 -2.979,3.036 -4.897,3.978 -0.578,0.262 -1.465,0.412 -1.877,-0.19 -0.551,-0.592 -0.197,-1.415 0.011,-2.068 1.037,-2.883 2.009,-5.791 3.233,-8.599 0.344,-0.575 0.976,-0.871 1.517,-1.221 0.993,-0.575 1.87,-1.326 2.853,-1.915 3.451,-1.812 7.056,-3.319 10.46,-5.216 1.231,-0.646 2.319,-1.506 3.475,-2.261 1.449,-0.646 2.901,-1.286 4.288,-2.054 2.401,-1.285 4.288,-3.282 6.44,-4.91 2.394,-2.17 5.094,-4.047 8.097,-5.271 2.258,-0.85 4.58,-1.517 6.77,-2.544 0.854,-0.462 1.666,-0.993 2.527,-1.448 0.87,-0.503 1.768,-0.959 2.645,-1.456 2.187,-0.993 4.166,-2.377 6.345,-3.38 4.506,-2.332 9.549,-3.468 14.585,-3.825 1.234,-0.085 2.482,-0.01 3.703,0.217 1.262,0.215 2.183,1.65 1.683,2.87 -0.727,1.711 -2.074,3.054 -3.492,4.21 -1.54,1.354 -3.322,2.472 -5.305,3.04 -1.87,0.578 -3.852,0.452 -5.78,0.636 -3.391,0.248 -6.669,1.17 -9.971,1.898l-0.02 0.091c-1.105,0.388 -2.22,0.772 -3.23,1.374 -1.33,0.85 -2.663,1.755 -4.139,2.326 -2.166,0.381 -4.628,0.228 -6.345,1.857 -3.196,1.941 -5.835,4.638 -8.171,7.532 -0.755,0.891 -1.415,1.853 -2.122,2.781 -0.843,1.5 -1.836,2.938 -2.357,4.598 -0.153,0.489 -0.309,0.976 -0.459,1.469 -0.625,1.642 -0.139,3.55 -1.118,5.07 -1.116,1.999 -2.615,3.744 -3.945,5.597 -2.731,3.655 -5.23,7.478 -7.838,11.221 -2.999,4.632 -6.233,9.134 -8.831,14.014 0.085,0.221 0.255,0.659 0.34,0.88 2.36,-0.789 4.737,-1.537 7.056,-2.445 1.462,-0.564 3.084,-0.775 4.393,-1.686 0.915,-0.684 1.432,-1.751 2.272,-2.513 1.227,-1.146 2.333,-2.421 3.621,-3.499 0.602,-0.425 1.327,-0.912 2.098,-0.721 0.728,0.282 0.922,1.098 0.976,1.795 0.014,2.986 -1.414,5.822 -1.064,8.824 0.061,1.286 0.734,2.738 -0.102,3.911 -0.86,1.265 -2.486,1.605 -3.914,1.717 -7.02,0.268 -21.821,6.271 -26.87,10.661 -1.888,1.513 -3.472,3.359 -5.298,4.944 -1.092,0.84 -1.275,2.316 -2.01,3.414 -0.285,0.32 -0.466,1.122 -1.013,0.751 -0.439,-1.003 -0.697,-2.149 -0.361,-3.223 0.561,-1.656 0.585,-3.438 1.252,-5.063zm132.495 -3.292c-0.211,-1 -0.157,-2.057 0.126,-3.037 0.092,-0.5 0.183,-1.016 0.418,-1.472 0.422,-1.653 0.898,-3.295 1.445,-4.91 0.18,-1.809 0.622,-3.588 0.67,-5.414 0.245,-6.457 1.707,-12.867 1.129,-19.352 -0.088,-5.066 -0.921,-10.089 -2.067,-15.016 -0.307,-2.102 -1.248,-4.023 -1.701,-6.087 -0.414,-2.016 -1.703,-3.723 -2.081,-5.743 -0.047,-0.898 0.367,-1.949 1.286,-2.251 0.897,-0.388 1.866,-0.068 2.781,0.081 5.148,1.16 10.266,2.459 15.442,3.506 1.771,0.469 3.543,1.574 4.247,3.343 0.959,1.754 2.003,3.519 2.448,5.491 0.16,0.728 -0.445,1.585 -1.207,1.599 -1.136,0.261 -2.122,-0.466 -3.118,-0.861 -2.214,-1.061 -4.706,-1.146 -7.077,-1.625 -0.72,-0.048 -1.601,-0.527 -2.196,0.088 -0.619,0.507 -0.323,1.364 -0.194,2.027 0.452,1.765 0.881,3.54 1.289,5.318 0.306,1.337 1.802,1.802 2.992,2.007 2.085,0.268 4.142,0.744 6.243,0.918 1.401,0.143 2.5,1.275 2.833,2.608 0.381,1.625 0.85,3.264 0.857,4.947 0.044,1.327 -1.568,2.02 -2.693,1.772 -2.449,-0.571 -4.951,-0.887 -7.464,-0.972 -0.606,-0.068 -1.143,0.34 -1.476,0.802 -0.626,1.551 -0.082,3.237 -0.194,4.849 0.071,1.639 -0.112,3.299 0.136,4.921 0.639,1.404 2.295,1.033 3.536,1.027 1.731,-0.113 3.425,0.367 5.152,0.353 1.646,-0.041 3.319,0.49 4.941,-0.017 1.755,-0.422 2.802,-2.122 4.512,-2.635 1.299,-0.276 2.466,0.87 2.677,2.091 0.404,2.377 0.071,4.785 0.142,7.178 0.119,2.027 -1.792,3.894 -3.801,3.802 -7.879,-0.417 -19.6,-1.801 -24.97,5.533 -0.024,0.149 -0.092,0.268 -0.2,0.353 -0.504,0.939 -0.915,1.969 -1.656,2.755 -0.466,0.921 -0.97,1.866 -1.755,2.56 -0.527,0.408 -1.177,-0.075 -1.452,-0.537zm-58.797 -8.26l0.132 0.17c0.521,2.52 1.952,4.904 1.568,7.56 0.061,0.948 -1.183,1.734 -1.928,1.006 -7.502,-7.076 -3.534,-10.786 -19.73,-11.483 -1.764,0.074 -3.594,0.336 -5.297,-0.272 -1.405,-0.694 -2.15,-2.333 -1.993,-3.853 0.354,-5.903 1.006,-11.786 1.918,-17.628 0.557,-5.682 2.468,-11.106 3.529,-16.693 0.5,-2.645 1.435,-5.355 3.557,-7.144 1.503,-0.962 3.306,-1.248 4.934,-1.921 2.585,-1.116 5.322,-1.803 7.944,-2.816 2.112,-0.803 4.264,-1.527 6.498,-1.904 0.894,-0.133 2.095,0.17 2.292,1.193 0.629,1.541 -0.585,2.928 -1.003,4.35 -0.731,1.611 -0.888,3.601 -2.329,4.798 -0.715,0.697 -1.707,1.04 -2.7,0.935 -2.68,-0.211 -5.213,0.863 -7.709,1.673 -1.282,0.428 -2.823,0.996 -3.176,2.472 -0.575,2.21 -1.122,4.431 -1.595,6.668 0.588,1.051 1.806,0.633 2.734,0.405 1.775,-0.487 3.577,-0.854 5.335,-1.408 0.847,-0.269 1.989,-0.231 2.472,0.649 0.711,1.082 0.082,2.364 0.041,3.54 -0.248,1.765 -0.381,3.931 -2.023,5.026 -0.966,0.741 -2.234,0.514 -3.356,0.741 -1.782,0.337 -3.554,0.738 -5.281,1.279 -0.99,0.235 -1.575,1.224 -1.684,2.176 -0.357,2.143 -0.336,4.322 -0.472,6.482 0.085,1.741 2.203,1.717 3.479,1.873 1.989,-0.095 3.968,0.813 5.937,0.248 1.649,-0.761 2.632,-2.526 4.393,-3.111 0.945,-0.452 1.945,0.384 2.336,1.211 0.408,1.465 0.609,3.006 0.548,4.532 0.115,3.088 0.122,6.189 0.629,9.246zm17.961 -25.33c0.143,0.504 0.299,1.007 0.445,1.517 0.857,2.353 1.718,4.761 3.282,6.753 -0.459,-2.87 1.867,-4.951 2.591,-7.528 0.836,-2.724 1.87,-5.526 3.944,-7.563 0.786,-0.748 2.047,-1.027 3.01,-0.449 1.585,0.837 2.829,2.166 4.091,3.411 2.016,1.999 3.172,4.689 5.209,6.668 1.704,-2.608 2.353,-5.736 2.7,-8.783 0.092,-0.895 0.075,-1.792 -0.01,-2.68 -0.238,-4.913 -1.996,-9.603 -4.377,-13.86 -1.404,-2.095 -2.754,-4.237 -4.342,-6.203 -1.343,-1.455 -2.18,-3.349 -3.696,-4.631 -0.792,-0.666 -1.636,0.17 -2.108,0.792 -1.214,1.629 -2.462,3.234 -3.687,4.849 -2.621,3.887 -5.512,7.774 -6.603,12.422 -1.595,4.928 -1.826,10.276 -0.449,15.285zm95.587 -14.336c1.394,-0.636 2.631,0.615 3.689,1.357 1.523,0.972 2.129,2.768 2.829,4.339 0.412,1.02 0.956,2.152 0.595,3.268 -0.268,0.734 -1.231,0.802 -1.856,0.533 -2.221,-1.033 -3.833,-3.002 -4.928,-5.148 -0.778,-1.261 -1.56,-3.115 -0.329,-4.349zm10.218 -12.575c0.843,1.789 1.921,3.564 2.023,5.587 0.092,1.01 0.446,2.132 -0.211,3.033 -0.346,0.551 -1.118,0.595 -1.608,0.221 -1.673,-1.135 -2.401,-3.179 -3.928,-4.454 -2.451,-2.513 -5.161,-4.795 -8.29,-6.424 -2.027,-1.159 -4.145,-2.162 -6.087,-3.461 -1.023,-0.782 -1.999,-1.857 -2.026,-3.221 0.176,-1.69 1.503,-2.87 2.56,-4.07 1.462,-1.568 2.7,-3.322 3.952,-5.06 2.679,-3.584 5.093,-7.409 8.378,-10.49 3.064,-3.033 6.563,-5.679 10.463,-7.546 0.946,-0.449 2.286,-0.996 3.136,-0.071 0.489,0.881 -0.266,1.765 -0.803,2.414 -0.626,0.83 -1.557,1.472 -1.887,2.493 2.441,-0.119 5.063,-0.473 7.324,0.717 1.282,0.514 2.156,1.67 2.595,2.948 0.558,1.099 0.003,2.646 -1.173,3.071 -2.265,0.959 -4.808,0.479 -7.148,1.125 -2.955,0.558 -5.628,2.027 -8.093,3.69 -2.778,2.159 -5.4,4.72 -6.9,7.95 3.982,0.102 7.665,-1.795 11.521,-2.506 0.833,-0.187 1.932,0.095 2.262,0.966 0.333,1.01 -0.058,2.067 -0.596,2.924 -1.094,1.813 -2.455,3.455 -3.968,4.934 -0.717,0.711 -1.557,1.309 -2.169,2.119 -0.592,1.074 0.047,2.224 0.673,3.111zm-94.04 41.965c2.02,-0.428 3.52,-1.976 4.849,-3.451 -0.979,-2.758 -2.553,-5.342 -4.651,-7.39 -0.674,-0.635 -1.752,-1.428 -2.649,-0.72 -1.469,1.105 -3.258,2.166 -3.765,4.067 -0.258,1.009 -0.856,2.264 -0.061,3.179 0.976,1.309 2.299,2.309 3.69,3.142 0.833,0.449 1.7,0.84 2.587,1.173zm43.288 88.949c1.469,-0.626 3.241,0.724 2.965,2.306 -0.442,1.781 -1.965,3.24 -3.733,3.713 -0.782,0.211 -1.718,0.387 -2.381,-0.194 -0.894,-0.836 -0.544,-2.248 0.038,-3.159 0.761,-1.132 1.775,-2.241 3.111,-2.666zm-80.638 26.126c1.357,-0.259 2.591,0.51 3.768,1.071 1.183,0.643 2.587,1.391 2.839,2.856 0.255,0.636 -0.354,1.18 -0.857,1.442 -2.336,0.738 -4.798,-0.615 -6.294,-2.36 -0.857,-0.877 -0.728,-2.608 0.544,-3.009zm-64.853 -191.755c-0.388,-0.928 0.571,-1.891 1.506,-1.687 1.867,0.218 3.451,1.378 5.073,2.245 3.931,2.635 7.57,5.774 10.474,9.531 3.128,3.707 5.651,7.882 8.861,11.524 0.993,1.432 2.734,2.479 2.911,4.356 -0.143,1.32 -1.03,2.425 -2.074,3.183 -2.867,2.016 -6.162,3.305 -9.042,5.301 -2.877,2.027 -5.515,4.448 -7.62,7.277 -0.728,0.905 -1.486,2.187 -2.83,2.078 -0.754,-0.405 -0.999,-1.36 -0.931,-2.156 0.081,-2.89 1.506,-5.488 2.877,-7.954 0.384,-0.608 0.683,-1.554 0.03,-2.098 -2.594,-2.526 -5.648,-4.903 -7.018,-8.372 -0.623,-1.166 0.295,-2.723 1.659,-2.57 4.291,0.139 8.124,2.764 12.469,2.533 -1.4,-2.503 -3.21,-4.808 -5.484,-6.566 -2.19,-1.721 -4.513,-3.329 -7.135,-4.319 -2.856,-1.224 -6.029,-1.129 -9.045,-1.612 -1.238,-0.221 -2.322,-1.38 -2.213,-2.676 0.214,-1.384 1.03,-2.724 2.329,-3.329 2.397,-1.397 5.25,-1.38 7.916,-1.034 -0.575,-1.445 -2.074,-2.247 -2.713,-3.655zm115.928 10.276c2.499,-0.605 5.145,-0.384 7.661,0.034 2.271,0.48 4.604,0.816 6.757,1.731 2.574,1.064 5.178,2.166 7.426,3.846 2.156,1.693 3.924,3.815 5.608,5.964 0.52,0.701 1.122,1.775 0.285,2.489 -0.819,0.949 -2.064,0.242 -2.992,-0.115 -2.833,-1.265 -5.727,-2.428 -8.773,-3.05 -2.768,-0.432 -5.611,-0.347 -8.321,-1.116 -3.496,-0.918 -6.611,-3.247 -8.522,-6.304 -0.816,-1.122 -0.435,-2.918 0.871,-3.479zm71.375 90.347c0.65,-0.687 1.649,-0.269 2.363,0.085 4.326,2.166 7.801,5.923 9.705,10.368 1.517,3.135 1.48,6.719 1.497,10.126 -0.242,1.945 -0.16,3.928 -0.609,5.849 -0.752,3.727 -1.884,7.406 -3.615,10.8 -0.486,0.833 -1.289,2.309 -2.431,1.469 -0.796,-1.374 -0.507,-3.186 -1.588,-4.441 -1.163,1.744 -1.908,3.717 -3.006,5.498 -1.578,2.646 -3.346,5.189 -5.39,7.498 -2.057,2.292 -4.832,3.778 -6.879,6.077 -1.037,1.115 -2.044,2.268 -2.935,3.506 -1.112,2.251 -1.71,4.839 -3.441,6.739 -0.438,0.521 -1.367,0.776 -1.88,0.235 -0.66,-0.619 -0.5,-1.615 -0.527,-2.424 -0.034,-2.041 0.578,-4.037 0.384,-6.08 0.044,-1.86 -0.313,-3.683 -0.626,-5.502 -0.241,-3.153 0.167,-6.733 2.639,-8.984 2.033,-2.551 5.284,-3.516 8.392,-3.904 2.35,-0.163 4.224,-1.87 5.458,-3.754 3.074,-4.183 4.822,-9.205 5.74,-14.275 0.36,-1.809 0.133,-3.645 -0.041,-5.458 -0.272,-3.744 -1.38,-7.413 -3.142,-10.725 -0.425,-0.806 -0.847,-1.972 -0.068,-2.703zm-121.784 25.238c0.677,-0.279 1.354,-0.561 2.03,-0.85 0.317,1.255 -0.231,2.601 -1.282,3.336 -0.292,-0.817 -0.537,-1.65 -0.748,-2.486zm61.617 67.352c1.145,-0.53 3.305,-0.2 3.053,1.466 -0.581,2.435 -3.57,3.751 -5.9,3.244 -1.268,-0.398 -1.166,-2.095 -0.329,-2.86 0.914,-0.829 2.026,-1.414 3.176,-1.85z"/>
 </g>
</svg>
