<?xml version="1.0" encoding="UTF-8"?>
<!DOCTYPE svg PUBLIC "-//W3C//DTD SVG 1.1//EN" "http://www.w3.org/Graphics/SVG/1.1/DTD/svg11.dtd">
<!-- Creator: CorelDRAW 2021 (64-Bit) -->
<svg xmlns="http://www.w3.org/2000/svg" xml:space="preserve" width="1416px" height="451px" version="1.1" style="shape-rendering:geometricPrecision; text-rendering:geometricPrecision; image-rendering:optimizeQuality; fill-rule:evenodd; clip-rule:evenodd"
viewBox="0 0 222.137 70.776"
 xmlns:xlink="http://www.w3.org/1999/xlink"
 xmlns:xodm="http://www.corel.com/coreldraw/odm/2003">
 <defs>
  <style type="text/css">
   <![CDATA[
    .fil0 {fill:black;fill-rule:nonzero}
   ]]>
  </style>
 </defs>
 <g id="__x0023_Layer_x0020_1">
  <metadata id="CorelCorpID_0Corel-Layer"/>
  <path class="fil0" d="M206.125 42.201c3.491,-4.904 6.171,-10.427 10.154,-14.939 2.133,0.929 4.101,2.306 5.633,4.092 0.364,1.267 -0.839,2.261 -1.368,3.318 -4.357,6.527 -8.932,12.916 -13.125,19.561 4.193,4.047 9.37,6.799 14.001,10.272 2.16,2.015 -1.167,4.394 -2.033,6.271 -4.959,-2.333 -9.07,-6.034 -13.691,-8.914 -2.816,-2.005 -6.043,-3.518 -8.449,-6.043 2.37,-4.895 6.098,-8.96 8.878,-13.618zm-201.996 -7.957c7.192,-4.175 13.982,-9.179 21.621,-12.497 1.558,1.459 3.5,3.464 2.907,5.815 -1.34,7.347 -2.743,14.685 -3.855,22.077 -0.274,2.178 -0.994,4.503 0.073,6.599 4.484,-2.543 8.941,-5.123 13.271,-7.912 1.075,-0.601 2.552,-1.813 3.628,-0.483 1.139,1.304 1.841,2.908 2.634,4.457 -7.474,4.53 -15.104,8.824 -22.459,13.563 -1.823,0.903 -3.537,2.699 -5.715,2.425 -0.939,-1.203 -1.641,-2.543 -2.379,-3.837 1.85,-9.525 3.919,-19.023 5.104,-28.649 -0.355,-0.364 -1.067,-1.075 -1.422,-1.431 -5.049,1.915 -9.252,5.433 -13.882,8.122 -1.878,-0.912 -3.099,-2.771 -3.655,-4.731 0.665,-1.841 2.634,-2.534 4.129,-3.518zm47.434 -23.398c8.422,-1.832 16.407,-5.36 24.966,-6.627 0.902,2.024 1.44,4.175 1.841,6.363 -5.688,1.54 -11.494,2.698 -17.045,4.684 -3.5,1.122 -0.474,5.469 0.356,7.712 4.448,-0.885 8.741,-2.507 13.244,-3.154 1.905,1.221 2.087,4.029 1.95,6.125 -4.421,1.987 -9.434,2.233 -13.891,4.202 0.82,2.334 0.92,5.196 2.853,6.955 6.545,-0.638 12.724,-3.291 19.214,-4.102 1.386,1.504 2.133,3.655 1.841,5.697 -1.713,1.504 -4.202,1.395 -6.298,2.014 -6.116,1.049 -12.096,2.671 -18.011,4.503 -1.595,0.501 -4.32,1.194 -4.658,-1.166 -2.607,-9.763 -4.603,-19.707 -8.057,-29.223 -0.866,-1.559 -0.192,-3.737 1.695,-3.983zm51.937 -2.908c7.583,-10.528 25.722,-10.637 33.251,-0.009 5.35,6.982 5.15,17.838 -1.039,24.282 1.422,2.087 3.09,4.038 4.193,6.335 -1.422,1.495 -3.099,2.725 -4.895,3.728 -2.106,-1.741 -3.518,-4.111 -5.141,-6.253 -6.417,3.5 -14.42,3.136 -20.663,-0.574 -9.899,-4.74 -12.433,-19.16 -5.706,-27.509zm9.051 1.696c-5.433,3.545 -6.955,11.831 -2.734,16.899 3.6,4.912 10.464,6.17 15.923,3.855 -1.148,-1.768 -2.342,-3.463 -3.491,-5.204 1.586,-1.185 3.218,-2.307 4.868,-3.4 1.385,1.367 2.725,2.798 4.101,4.211 3.573,-5.086 2.343,-12.67 -2.534,-16.462 -4.639,-3.582 -11.393,-2.944 -16.133,0.101zm51.445 2.306c0.592,-1.741 0.701,-3.82 2.096,-5.15 4.12,0.246 7.939,2.005 11.831,3.226 4.931,1.924 10.263,2.808 14.939,5.378 -0.701,2.051 -1.44,4.102 -2.278,6.116 -5.907,-2.342 -11.886,-4.685 -18.139,-5.934 -1.358,1.878 -1.841,4.193 -2.516,6.372 4.385,2.379 9.225,3.664 13.809,5.569 -0.647,1.805 -1.203,3.673 -2.16,5.378 -4.758,0.173 -8.942,-3.409 -13.709,-3.628 -1.622,1.768 -1.896,4.339 -2.306,6.618 5.797,3.29 12.643,4.375 18.485,7.519 0.575,1.878 -0.738,3.819 -1.613,5.442 -7.894,-1.522 -15.067,-5.56 -22.924,-7.265 -1.395,-0.62 -4.321,-0.62 -3.801,-2.825 2.58,-8.988 5.961,-17.747 8.286,-26.816z"/>
 </g>
</svg>
