<?xml version="1.0" encoding="UTF-8"?>
<!DOCTYPE svg PUBLIC "-//W3C//DTD SVG 1.1//EN" "http://www.w3.org/Graphics/SVG/1.1/DTD/svg11.dtd">
<!-- Creator: CorelDRAW 2021 (64-Bit) -->
<svg xmlns="http://www.w3.org/2000/svg" xml:space="preserve" width="2147px" height="453px" version="1.1" style="shape-rendering:geometricPrecision; text-rendering:geometricPrecision; image-rendering:optimizeQuality; fill-rule:evenodd; clip-rule:evenodd"
viewBox="0 0 2428.807 512.346"
 xmlns:xlink="http://www.w3.org/1999/xlink"
 xmlns:xodm="http://www.corel.com/coreldraw/odm/2003">
 <defs>
  <style type="text/css">
   <![CDATA[
    .fil0 {fill:black;fill-rule:nonzero}
   ]]>
  </style>
 </defs>
 <g id="__x0023_Layer_x0020_1">
  <metadata id="CorelCorpID_0Corel-Layer"/>
  <path class="fil0" d="M753.717 2.3c22.949,-1.848 45.857,1.42 68.849,1.935 13.194,0.773 30.686,2.105 36.058,16.631 3.654,14.828 1.418,30.471 1.89,45.642 2.451,16.118 -16.158,24.025 -29.481,22.779 -45.857,-2.45 -91.713,0.558 -137.526,1.202 -18.308,-0.043 -36.703,0.43 -54.711,3.825 -7.95,2.665 -15.127,10.229 -14.268,19.126 -0.731,20.156 -3.48,40.527 -0.214,60.597 1.246,9.799 10.185,16.717 19.382,18.695 43.709,4.512 87.674,2.664 131.552,3.395 12.249,0 28.58,6.103 27.549,21.016 0.086,17.19 3.954,36.316 -5.587,51.83 -6.705,10.228 -20.199,9.799 -30.986,10.315 -40.012,0.387 -80.023,-1.504 -119.993,-0.044 -11.131,-0.3 -22.089,7.952 -22.777,19.469 -2.192,18.481 -0.903,37.176 -0.903,55.741 1.032,9.498 0.044,22.65 10.402,27.463 13.579,5.243 28.664,4.856 43.062,4.641 41.645,-1.417 83.204,2.493 124.848,2.364 19.382,-0.085 38.98,-2.966 58.234,0.473 13.367,2.02 23.852,15.643 22.864,29.095 -0.388,13.667 2.149,29.268 -6.403,41.087 -5.932,8.939 -17.75,9.626 -27.377,10.185 -68.806,-0.258 -137.613,1.204 -206.375,-0.816 -37.09,-1.333 -74.996,5.242 -111.484,-3.611 -17.964,-5.329 -16.073,-27.548 -16.116,-42.375 5.114,-44.266 0.946,-88.747 1.333,-133.142 0.042,-68.549 5.844,-137.183 -1.375,-205.56 -1.935,-21.23 -3.31,-43.708 3.652,-64.166 7.951,-15.556 28.022,-12.72 42.547,-14.825 64.466,-1.075 128.974,1.89 193.354,-2.967zm1359.493 18.954c21.66,-4.383 44.653,-5.63 66.357,-0.731 13.323,4.341 16.546,20.242 15.342,32.533 -4.383,40.141 -3.438,80.497 -2.321,120.766 0.602,61.844 -3.997,123.86 -0.558,185.618 -0.516,17.191 17.62,22.95 31.674,23.638 54.409,1.202 108.946,6.102 163.269,0.344 12.678,1.074 29.826,-1.333 38.164,10.486 5.888,13.279 2.923,28.278 2.923,42.375 -0.473,11.346 -1.933,26.903 -14.913,30.728 -28.194,7.866 -57.718,1.505 -86.47,3.654 -31.545,3.179 -63.305,1.331 -94.807,-1.204 -37.563,0.344 -75.038,-2.235 -112.429,-4.556 -14.783,-0.257 -22.262,-15.729 -20.886,-28.837 -0.817,-67.345 1.934,-134.691 3.911,-201.949 -1.375,-61.673 7.692,-123.43 0.945,-184.974 1.16,-9.541 0.645,-22.046 9.799,-27.891zm-2081.12 -14.139c14.053,-1.892 28.193,0.6 42.246,1.418 27.29,2.191 54.666,-0.216 82,0.901 68.635,6.534 137.612,1.419 206.334,4.942 10.872,0.087 24.583,4.557 25.098,17.493 0.558,21.316 7.52,46.889 -8.424,64.423 -66.572,81.097 -132.411,162.754 -198.468,244.281 -7.434,10.787 -19.425,21.273 -17.405,35.671 1.288,10.787 13.967,11.088 22.391,11.732 30.041,0.56 60.124,-0.687 90.209,0.473 34.381,1.547 68.806,-5.371 103.145,-0.988 14.611,1.505 21.315,18.308 20.713,31.287 -0.815,15.385 3.053,33.953 -8.637,46.243 -11.69,9.498 -27.893,4.771 -41.602,5.63 -38.808,1.892 -77.702,-0.473 -116.51,0.731 -70.998,1.375 -142.169,2.535 -212.908,-3.008 -12.292,-0.902 -21.404,-11.432 -20.158,-23.766 1.419,-18.825 -4.211,-40.829 9.069,-56.559 45.513,-56.256 91.799,-111.74 138.602,-166.922 23.035,-32.447 52.947,-59.824 72.243,-94.894 4.685,-7.306 5.63,-16.803 -0.902,-23.337 -17.191,-7.52 -36.445,-6.102 -54.71,-7.348 -40.011,-0.515 -80.109,-1.246 -119.992,2.321 -14.354,1.676 -33.221,-3.826 -35.713,-20.243 -2.192,-18.136 -2.794,-36.917 0.773,-54.882 1.891,-10.786 12.678,-15.471 22.606,-15.599zm1788.403 -3.181c39.797,-2.536 80.023,-3.267 119.476,3.051 11.648,1.805 18.61,13.624 18.395,24.798 -0.344,14.226 1.89,28.923 -1.633,42.891 -4.255,12.42 -18.911,14.14 -30.127,14.312 -27.29,-0.301 -54.624,-1.204 -81.871,-0.129 -32.964,2.191 -66.185,-0.172 -98.977,4.082 -9.541,0.688 -21.23,6.06 -22.391,16.718 -2.02,21.188 -1.761,42.633 -0.816,63.907 0.258,14.053 15.901,19.64 27.719,20.113 38.724,-0.042 77.36,3.095 116.125,2.579 12.119,0.344 30.427,1.376 33.264,16.332 1.419,15.643 1.376,31.544 -0.387,47.145 -0.859,10.056 -9.669,17.879 -19.554,18.437 -47.361,3.181 -94.979,-2.621 -142.169,2.708 -11.516,0.515 -14.182,13.28 -16.158,22.347 -1.634,18.524 -0.947,37.219 -0.43,55.828 0.343,10.486 4.856,23.466 16.89,24.884 34.08,3.997 68.59,0.602 102.8,3.438 37.348,2.579 74.824,-0.215 112.17,1.246 12.25,-0.645 23.553,9.111 25.143,21.145 2.492,15.816 4.469,33.694 -3.31,48.35 -7.908,13.751 -25.657,11.13 -38.98,11.474 -84.665,2.106 -169.33,-1.504 -254.037,0.043 -19.168,-0.559 -39.582,1.59 -57.418,-6.704 -11.475,-5.716 -12.033,-19.77 -11.819,-30.858 3.137,-76.026 1.032,-152.096 2.837,-228.121 2.966,-36.359 -0.645,-72.762 -1.59,-109.12 -2.622,-24.454 -5.157,-49.767 2.191,-73.662 2.794,-7.565 9.929,-13.796 18.223,-14.14 61.929,-6.877 124.333,0.86 186.434,-3.094zm-643.796 0.386c34.855,-6.016 70.484,-4.684 105.638,-2.363 72.803,11.26 135.42,63.003 169.416,127.126 16.158,31.029 22.262,65.841 26.13,100.265 9.798,42.806 -5.072,86.599 -23.981,124.72 -7.694,16.073 -24.454,32.362 -16.031,51.572 10.701,19.727 28.751,34.082 41,52.733 3.61,5.243 3.353,13.28 -1.891,17.449 -12.593,11.99 -26.259,22.993 -40.141,33.393 -9.067,7.091 -21.273,1.031 -27.161,-7.178 -11.303,-14.698 -23.208,-28.924 -35.8,-42.547 -3.782,-4.211 -8.853,-7.09 -14.354,-8.165 -16.374,5.115 -31.245,13.968 -47.36,19.813 -24.627,9.669 -51.057,13.365 -77.317,15.3 -43.407,2.62 -85.91,-10.703 -124.89,-28.709 -26.002,-12.206 -51.273,-27.678 -69.623,-50.155 -38.078,-47.705 -61.029,-107.872 -61.586,-169.071 4.813,-49.209 17.146,-99.579 47.274,-139.805 14.698,-17.062 29.439,-34.424 47.404,-48.177 30.857,-22.262 66.184,-37.906 103.273,-46.201zm-10.959 96.613c-21.016,6.662 -36.272,23.38 -52.002,37.863 -29.912,29.01 -42.461,71.771 -42.461,112.514 6.661,50.626 32.748,102.243 79.25,126.998 29.481,15.084 63.391,24.625 96.611,18.866 19.039,-3.524 41.388,-4.513 54.495,-20.886 -8.509,-14.699 -20.156,-27.033 -32.146,-38.853 -7.994,-6.704 -10.272,-20.199 -1.246,-27.075 14.053,-12.162 27.934,-25.356 44.91,-33.35 19.512,7.392 28.967,28.71 46.759,38.722 5.415,3.997 11.046,-2.965 13.796,-7.091 39.582,-75.683 3.18,-183.34 -78.347,-213.638 -24.282,-11.304 -51.572,-9.412 -77.617,-9.499 -17.964,2.665 -34.941,9.584 -52.002,15.429z"/>
 </g>
</svg>
